<?xml version="1.0" encoding="UTF-8"?>
<svg width="159px" height="45px" viewBox="0 0 159 45" version="1.1" xmlns="http://www.w3.org/2000/svg" xmlns:xlink="http://www.w3.org/1999/xlink">
    <!-- Generator: Sketch 57.1 (83088) - https://sketch.com -->
    <title>RubyKraken</title>
    <desc>Created with Sketch.</desc>
    <g id="Page-1" stroke="none" stroke-width="1" fill="none" fill-rule="evenodd" fill-opacity="0.8">
        <g id="A4" transform="translate(-350.000000, -278.000000)" fill="#ffffff" fill-rule="nonzero">
            <path d="M351.32,292.14 C351.44,291.3 351.56,290.46 351.74,289.62 C351.86,288.84 352.04,288 352.22,287.16 C352.46,286.38 352.64,285.72 352.88,285 C353.06,284.16 353.3,283.44 353.48,282.6 C353.48,282.48 353.6,282.3 353.6,282.18 C353.66,282 353.78,281.76 353.84,281.64 C353.72,281.34 353.96,281.22 354.08,281.1 C354.44,280.86 354.68,280.8 355.04,280.92 C355.28,280.98 355.58,281.1 355.88,281.16 C356.06,281.22 356.24,281.28 356.24,281.52 L356.24,282.36 C356.12,282.96 356.06,283.5 355.94,284.04 C355.88,284.4 355.82,284.76 355.82,285.06 C355.64,285.96 355.58,286.86 355.4,287.76 C355.34,288.42 355.16,288.96 355.1,289.56 C355.04,289.86 354.98,290.22 354.98,290.46 C355.04,291.24 354.92,292.08 354.8,292.8 C354.74,293.16 354.74,293.52 354.68,293.88 C354.62,294.72 354.5,295.5 354.5,296.34 C354.5,296.4 354.56,296.46 354.44,296.58 C354.32,296.88 354.38,297.24 354.44,297.6 C354.38,297.72 354.5,297.78 354.62,297.72 C354.86,297.6 355.1,297.36 355.28,297.24 C356.06,296.76 356,296.76 356.12,296.1 C356.3,295.38 356.36,294.6 356.48,293.88 C356.6,293.4 356.72,292.98 356.78,292.5 C356.9,292.2 356.9,291.84 357.02,291.6 C357.02,291.6 357.08,291.54 357.08,291.42 C357.2,290.46 357.44,289.5 357.62,288.54 C357.68,288.36 357.86,288.12 357.86,287.94 C358.04,287.34 358.22,286.8 358.34,286.2 C358.52,285.48 358.76,284.82 359.06,284.1 C359.24,283.62 359.54,283.2 359.78,282.72 C360.2,282.12 360.68,281.58 361.22,281.1 C361.58,280.62 362,280.2 362.48,279.84 C363.14,279.42 363.68,279.06 364.4,278.88 C364.76,278.7 365.06,278.7 365.42,278.7 C366.44,278.64 367.22,278.88 368,279.3 C368.36,279.54 368.72,279.9 368.96,280.26 C369.26,280.62 369.38,280.98 369.38,281.52 L369.38,281.88 C369.44,282.6 369.44,283.2 369.14,283.92 C368.96,284.28 368.84,284.58 368.66,284.94 C368.6,285.18 368.48,285.36 368.36,285.66 C368.18,286.08 368,286.44 367.76,286.86 C367.52,287.34 367.16,287.76 366.86,288.24 C366.86,288.36 366.74,288.48 366.62,288.54 C366.38,288.66 366.2,288.96 366.14,289.26 L365.96,289.44 C365.78,289.62 365.6,289.92 365.48,290.22 C365.42,290.34 365.36,290.46 365.3,290.52 C364.94,291 364.7,291.42 364.34,291.9 C363.98,292.5 363.5,293.1 363.02,293.64 C362.78,293.94 362.42,294.3 362.06,294.6 C361.88,294.9 361.58,295.08 361.4,295.32 C360.38,296.1 359.48,296.88 358.4,297.48 C357.92,297.66 357.56,297.9 357.2,298.14 C357.02,298.26 356.84,298.44 356.84,298.62 C356.78,299.1 356.6,299.52 356.6,299.94 C356.54,300.36 356.48,300.72 356.48,301.08 C356.54,301.32 356.66,301.44 356.78,301.62 C356.9,301.74 357.02,301.86 357.08,301.98 C357.8,302.64 358.16,303.54 358.46,304.44 C358.64,304.86 358.82,305.28 358.88,305.76 C359.06,306.18 359.3,306.54 359.48,306.9 C359.78,307.44 359.96,307.98 360.26,308.46 C360.5,308.94 360.62,309.42 360.8,309.96 C360.8,310.02 360.86,310.08 360.8,310.2 C360.92,310.62 361.1,310.92 361.22,311.28 C361.28,311.4 361.46,311.58 361.4,311.7 C361.52,312.3 361.7,312.96 361.88,313.5 C362,314.04 362.12,314.58 362.42,315 C362.48,315 362.42,315.06 362.42,315.06 C362.54,315.54 362.78,315.84 363.14,316.08 C363.5,316.56 364.1,316.68 364.82,316.62 C364.94,316.62 365.18,316.44 365.36,316.44 C365.42,316.38 365.48,316.32 365.6,316.26 C365.66,316.38 365.42,316.56 365.42,316.62 C365.42,316.68 365.36,316.68 365.36,316.74 C365.12,317.34 364.58,317.52 363.92,317.58 C363.68,317.58 363.38,317.58 363.08,317.52 C362.9,317.46 362.78,317.46 362.66,317.28 C362.42,317.04 362.18,316.86 361.82,316.68 C361.64,316.56 361.52,316.38 361.34,316.2 C361.4,316.14 361.34,316.08 361.34,316.08 C360.92,315.84 360.86,315.42 360.74,315 C360.62,314.82 360.56,314.52 360.38,314.34 C360.2,313.98 360.02,313.62 359.96,313.26 C359.84,312.96 359.66,312.66 359.54,312.3 C359.24,311.7 359.06,311.16 358.88,310.5 C358.58,309.78 358.22,309.06 357.92,308.28 C357.92,308.16 357.86,308.04 357.74,307.8 C357.68,307.62 357.56,307.5 357.5,307.26 C357.2,306.66 356.84,306 356.6,305.46 C356.54,305.4 356.54,305.34 356.48,305.28 C356.36,305.22 356.36,304.92 356.18,304.98 C356.06,305.04 356.12,305.28 356.18,305.4 C356.12,305.94 356,306.42 355.94,307.02 C355.88,307.26 355.76,307.56 355.82,307.74 C355.88,307.8 355.82,307.92 355.82,307.92 C355.76,308.7 355.64,309.48 355.7,310.32 C355.64,311.1 355.58,311.82 355.46,312.66 C355.34,313.2 355.04,313.68 354.74,314.16 C354.68,314.34 354.56,314.4 354.38,314.4 C354.26,314.46 354.08,314.52 353.9,314.58 C353.48,314.76 353.24,314.64 352.88,314.46 C352.64,314.4 352.46,314.28 352.4,314.04 C351.98,313.56 351.62,312.96 351.44,312.3 C351.38,312 351.2,311.64 351.14,311.28 C351.08,310.98 351.08,310.74 350.96,310.38 C350.9,309.96 350.84,309.54 350.72,309.12 C350.54,308.46 350.48,307.68 350.42,306.84 C350.3,305.7 350.3,304.38 350.3,303.12 C350.3,302.64 350.3,302.16 350.36,301.68 C350.36,301.08 350.42,300.48 350.36,299.94 C350.42,299.82 350.42,299.58 350.36,299.46 L350.36,299.4 C350.48,298.44 350.48,297.54 350.6,296.58 C350.66,296.22 350.66,295.86 350.72,295.5 C350.9,294.42 351.08,293.22 351.26,292.14 L351.32,292.14 Z M365.6,283.44 C365.6,283.26 365.66,283.2 365.66,283.14 C365.78,282.72 365.84,282.3 365.9,281.88 C365.9,281.52 365.84,281.1 365.66,280.68 C365.66,280.5 365.54,280.44 365.3,280.5 C364.7,280.68 364.16,280.74 363.62,281.16 C363.08,281.58 362.54,282 361.94,282.24 C361.7,282.3 361.52,282.48 361.46,282.6 C361.1,283.02 360.92,283.5 360.5,283.86 C360.44,283.92 360.38,283.98 360.38,284.1 C360.08,284.58 359.9,285.18 359.78,285.72 C359.72,285.9 359.66,286.14 359.54,286.32 C359.42,286.8 359.18,287.22 359,287.7 C358.94,288.12 358.76,288.54 358.76,288.9 C358.7,289.38 358.64,289.92 358.46,290.4 C358.04,291.18 357.92,291.9 357.8,292.68 C357.74,293.52 357.62,294.36 357.38,295.08 C357.38,295.26 357.26,295.38 357.26,295.5 C357.26,295.68 357.32,295.68 357.44,295.68 C357.62,295.62 357.74,295.5 357.8,295.38 C358.22,295.08 358.64,294.84 359,294.54 C359.3,294.3 359.6,293.94 359.96,293.64 C360.32,293.4 360.68,293.1 360.98,292.68 C361.46,292.26 361.82,291.84 362.06,291.36 C362.36,290.88 362.66,290.34 363.02,289.86 C363.32,289.32 363.68,288.72 363.86,288.18 C364.52,286.62 365.24,285 365.6,283.44 Z M354.56,308.7 C354.62,308.52 354.68,308.16 354.68,307.92 C354.74,306.72 354.92,305.52 355.1,304.32 C355.1,304.08 355.16,303.84 355.22,303.54 C355.28,303.24 355.16,303 354.92,302.76 C354.8,302.64 354.8,302.52 354.68,302.34 C354.5,302.28 354.44,302.28 354.38,302.22 C354.26,302.16 354.2,302.22 354.2,302.34 C354.14,303 354.14,303.66 354.14,304.38 C354.08,304.56 354.08,304.86 354.08,305.04 C354.02,305.7 354.08,306.3 354.08,306.9 C354.14,307.74 354.32,308.58 354.14,309.42 C354.14,309.54 354.2,309.6 354.2,309.72 L354.26,309.72 C354.32,309.72 354.32,309.72 354.32,309.6 C354.44,309.42 354.5,309.12 354.56,308.7 Z M355.64,299.82 C355.64,299.64 355.64,299.52 355.7,299.34 C355.76,299.1 355.64,299.1 355.4,299.1 C355.04,299.16 354.8,299.34 354.5,299.52 C354.38,299.58 354.38,299.82 354.44,299.88 L355.04,300.18 C355.52,300.42 355.52,300.42 355.64,299.82 Z M380.713497,301.453007 C380.734671,301.485776 380.756839,301.521398 380.78,301.56 L380.72,301.44 L380.713497,301.453007 L380.713497,301.453007 Z M380.713497,301.453007 L380.66,301.56 L380.66,301.62 C380.72,301.62 380.72,301.62 380.78,301.56 C380.72,301.92 380.72,302.4 380.66,302.76 C380.54,302.76 380.48,302.82 380.42,303.06 L380.3,303.78 C380.3,303.84 380.3,303.9 380.18,303.9 L380.06,304.02 L380,304.14 C380,304.2 380,304.2 380.06,304.2 C380.12,304.32 380.18,304.38 380.12,304.5 C380.12,304.56 380.06,304.62 380.06,304.68 C380,304.8 379.94,304.92 379.94,305.1 L379.88,305.34 C379.88,305.4 379.82,305.46 379.7,305.46 C379.7,305.4 379.64,305.4 379.64,305.4 L379.52,305.4 L379.52,305.46 C379.58,305.52 379.52,305.58 379.52,305.7 C379.52,305.76 379.52,305.82 379.4,305.94 C379.4,305.94 379.46,305.94 379.46,306 L379.52,305.94 C379.52,305.94 379.58,305.88 379.64,305.88 C379.64,305.88 379.64,305.82 379.76,305.82 L379.76,306.24 C379.7,306.42 379.7,306.54 379.64,306.66 L379.22,307.32 C379.16,307.38 379.16,307.26 379.16,307.2 C379.16,307.15 379.201667,307.058333 379.215556,307.029167 C379.159628,307.02093 379.039351,307.321948 378.62,308.58 C378.5,308.76 378.5,308.88 378.32,309.06 C378.26,309.12 378.26,309.24 378.26,309.3 L378.02,309.78 L377.48,310.56 C377.42,310.74 377.24,310.92 377.06,311.04 C376.76,311.22 376.22,311.34 375.98,311.4 C375.74,311.46 375.56,311.58 375.38,311.58 L375.2,311.58 C374.96,311.64 374.9,311.64 374.78,311.64 C374.48,311.64 374.24,311.46 374,311.34 C373.88,311.28 373.82,311.22 373.82,310.98 C373.82,310.8 373.82,310.62 373.64,310.56 C373.58,310.2 373.46,310.02 373.34,309.66 L373.22,309.18 C373.22,308.94 373.16,308.76 373.22,308.58 L373.22,308.34 C373.22,308.34 373.16,308.52 373.1,308.52 C373.04,308.52 372.98,308.28 373.1,307.38 C373.04,307.32 373.04,307.26 373.04,307.14 L373.1,306.9 C373.1,306.9 373.1,306.84 373.16,306.84 L373.16,306.78 C373.22,306.66 373.04,306.6 373.04,306.48 C373.04,306.48 373.04,306.42 373.16,306.42 C373.34,306.24 373.28,306.12 373.34,306 L373.4,305.88 C373.4,305.82 373.4,305.76 373.28,305.76 C373.16,305.76 373.16,305.7 373.16,305.7 L373.4,305.52 C373.4,305.52 373.34,305.52 373.34,305.46 L373.34,305.34 C373.34,305.28 373.46,305.16 373.46,304.98 C373.58,304.32 373.58,303 373.64,302.7 L373.64,302.64 C373.64,302.64 373.64,303.014872 373.690594,303.056295 C373.701426,303.017296 373.70925,302.8845 373.76,302.58 C373.82,302.22 373.88,301.56 374.06,300.48 C374.06,300.48 374.24,299.76 374.3,299.46 L374.3,299.34 L374.12,299.52 L373.52,300.48 C373.52,300.54 373.52,300.6 373.4,300.66 C372.98,301.08 372.86,301.56 372.56,301.98 C372.2,302.34 371.9,303.96 371.6,304.38 C371.3,304.68 371.24,305.04 370.94,305.34 C370.88,305.4 370.82,305.52 370.76,305.7 C370.76,305.76 370.7,305.82 370.7,305.88 C370.46,306.24 370.16,306.3 369.86,306.36 L369.2,306.54 C368.84,306.72 368.6,306.72 368.36,306.72 L368.06,306.72 C367.64,306.72 367.28,306.6 366.8,306.42 C366.68,306.3 366.5,306.06 366.44,305.88 C366.2,305.7 366.14,305.34 366.02,305.1 L366.08,304.8 C366.08,304.68 366.02,304.68 365.96,304.68 L365.9,304.62 L365.96,304.38 C365.96,304.26 365.96,304.14 365.9,304.02 C365.78,303.18 365.84,301.98 365.96,301.02 L366.08,300.42 C366.08,300.3 366.14,300.18 366.2,300 L366.26,299.52 C366.38,299.1 366.5,298.74 366.62,298.32 C366.74,297.96 366.92,297.54 366.98,297.12 L366.98,297 C367.28,296.88 367.34,296.64 367.52,296.52 C367.64,296.52 367.7,296.4 367.7,296.28 C367.7,296.28 367.7,296.22 367.76,296.16 C368.06,296.1 368.42,295.98 368.72,295.86 L368.9,295.86 C369.08,295.86 369.32,295.74 369.56,295.68 C369.62,295.62 369.68,295.62 369.74,295.62 C369.8,295.62 369.92,295.68 369.92,295.74 C370.16,296.04 370.34,296.16 370.52,296.34 C370.52,296.4 370.58,296.52 370.58,296.52 C370.64,296.7 370.58,296.94 370.58,297.12 L370.52,297.3 C370.28,297.36 370.28,297.54 370.22,297.66 C370.16,298.02 370.1,298.32 369.98,298.68 L369.92,298.8 C369.98,298.86 370.04,298.98 370.04,299.04 C369.98,299.16 369.92,299.28 369.92,299.4 L369.86,299.76 C369.8,300 369.74,300.24 369.68,300.42 L369.68,300.54 C369.56,300.78 369.5,300.84 369.5,300.96 C369.44,301.08 369.5,301.14 369.56,301.26 L369.5,301.5 C369.44,301.56 369.38,301.68 369.38,301.74 C369.32,301.8 369.38,301.86 369.38,301.92 C369.44,302.1 369.38,302.22 369.38,302.34 L369.14,303.12 L369.08,303.6 C369.02,303.72 369.02,303.84 369.08,303.96 L369.2,304.14 C369.14,304.2 369.14,304.26 369.14,304.32 C369.14,304.38 369.2,304.38 369.26,304.38 L369.38,304.38 C369.44,304.32 369.56,304.26 369.62,304.14 C370.28,303.48 370.76,302.76 371.36,301.98 L372.92,299.16 C373.28,298.74 373.7,298.38 374.12,298.08 L374.54,297.78 C374.84,297.54 375.14,297.48 375.5,297.42 L375.62,297.42 C375.74,297.42 375.86,297.48 375.98,297.54 C375.92,297.66 375.98,297.72 376.04,297.78 C376.28,297.96 376.28,298.26 376.28,298.56 L376.28,298.74 C376.22,298.86 376.22,299.04 376.1,299.16 L375.92,300.36 C375.86,300.78 375.86,301.2 375.8,301.68 L375.74,301.8 C375.68,302.04 375.62,302.34 375.62,302.52 L375.5,303.18 C375.5,303.66 375.38,304.08 375.32,304.62 C375.32,304.68 375.32,304.8 375.38,304.8 C375.44,304.86 375.5,304.86 375.5,304.92 C375.5,305.04 375.44,305.04 375.44,305.1 C375.26,305.22 375.26,305.34 375.26,305.4 C375.26,305.46 375.26,305.52 375.32,305.58 C375.38,305.76 375.38,305.88 375.32,306 C375.26,306.42 375.26,306.78 375.2,307.2 L375.2,307.38 L375.68,308.46 C375.68,308.7 375.74,308.94 375.68,309.3 C375.62,309.42 375.74,309.6 375.74,309.78 C376.04,309.66 376.04,309.48 376.28,309.3 C376.64,308.64 376.94,309.36 378.02,306.84 C378.02,306.72 378.14,306.54 378.14,306.42 C378.197361,306.305279 378.309558,306.300232 378.319319,306.247585 C378.32092,306.253938 378.327429,306.3 378.38,306.3 C378.38,306.3 378.32,306.42 378.38,306.42 C378.38,306.42 378.5,306.3 378.5,306.24 C378.5,306.18 378.56,306.06 378.56,305.94 C378.62,305.88 378.62,305.82 378.56,305.76 L378.68,305.76 C378.74,305.76 378.74,305.76 378.74,305.7 L378.74,305.58 C378.8,305.46 378.74,305.4 378.74,305.34 C378.74,305.28 378.8,305.22 378.8,305.22 L378.86,305.22 C378.92,305.22 378.92,305.22 379.04,305.16 C379.04,305.1 379.04,305.04 378.98,304.92 C378.92,304.86 378.98,304.8 378.98,304.74 C378.98,304.62 379.04,304.5 379.1,304.32 C379.1,304.14 379.28,304.2 379.28,304.14 L379.34,304.02 C379.34,303.96 379.34,303.96 379.4,303.96 L379.52,303.96 L379.58,303.9 C379.52,303.84 379.52,303.78 379.52,303.72 C379.58,303.66 379.58,303.6 379.7,303.6 L379.7,303.48 C379.64,303.42 379.64,303.3 379.7,303.24 L379.76,302.76 C379.76,302.7 379.76,302.64 379.82,302.58 C379.94,302.46 379.94,302.28 380.06,302.22 C380,302.04 380.06,301.92 380,301.8 L380.06,301.74 C380.06,301.68 380.12,301.68 380.18,301.68 C380.24,301.68 380.3,301.74 380.42,301.74 C380.3,301.62 380.3,301.44 380.36,301.32 C380.36,301.2 380.36,301.14 380.42,301.14 C380.47228,301.14 380.570112,301.231105 380.713497,301.453007 L380.713497,301.453007 Z M366.8,299.52 C366.92,299.46 366.98,299.4 367.04,299.4 L366.92,299.28 L366.8,299.4 L366.8,299.52 Z M366.2,305.16 L366.26,305.1 C366.26,305.04 366.2,305.04 366.2,305.04 L366.14,305.04 C366.14,305.1 366.14,305.16 366.2,305.16 Z M380.6,302.04 L380.66,302.04 L380.54,302.16 L380.6,302.04 Z M393.44,304.26 C393.44,304.5 393.44,304.74 393.38,304.98 C393.32,305.22 393.32,305.46 393.2,305.64 C393.02,305.94 393.02,306.24 392.9,306.54 C392.84,306.84 392.66,307.08 392.54,307.32 C392.36,307.5 392.24,307.74 392,307.92 L391.82,308.16 C391.7,308.22 391.58,308.28 391.58,308.34 C391.52,308.52 391.34,308.64 391.16,308.76 L391.1,308.76 C390.92,309.06 390.68,309.18 390.44,309.36 C390.38,309.42 390.32,309.48 390.26,309.48 C390.02,309.54 389.9,309.72 389.72,309.9 C389.66,309.96 389.6,309.96 389.48,309.96 C389.36,309.96 389.24,310.02 389.12,310.14 C389,310.32 388.76,310.44 388.52,310.5 C388.1,310.68 387.68,310.8 387.26,310.86 C387.14,310.86 387.02,310.92 386.96,310.92 C386.78,310.98 386.66,311.04 386.48,311.04 C386.36,311.04 386.24,310.98 386.12,310.98 L385.7,310.98 C385.58,310.98 385.52,310.98 385.52,310.86 L384.8,310.74 C384.68,310.74 384.62,310.8 384.56,310.92 C384.56,311.22 384.56,311.52 384.5,311.88 L384.38,312.6 C384.38,312.72 384.32,312.78 384.26,312.84 L384.26,313.08 C384.2,313.14 384.2,313.2 384.14,313.2 C383.9,313.32 383.84,313.62 383.66,313.8 L383.24,314.34 C383.06,314.64 382.76,314.76 382.52,314.82 C382.28,314.94 382.22,314.88 381.98,315 C381.8,315.06 381.62,315.06 381.5,315.06 C381.38,315.06 381.32,315.06 381.26,315 C381.14,314.94 381.02,314.88 380.9,314.88 C380.72,314.82 380.54,314.7 380.6,314.4 C380.6,314.34 380.48,314.28 380.48,314.22 C380.36,314.1 380.36,313.92 380.36,313.68 L380.36,313.56 C380.18,313.38 380.24,313.08 380.18,312.84 L380.18,312.78 C380.24,312.6 380.48,312.42 380.54,312.24 L380.54,312.12 C380.54,311.82 380.36,311.58 380.18,311.34 L380.18,310.98 C380.24,310.74 380.18,310.5 380.18,310.26 C380.12,310.14 380.12,310.02 380.12,309.9 C380.12,309.84 380.12,309.78 380.24,309.72 C380.24,309.66 380.18,309.6 380.18,309.54 C380.06,309.06 380.12,308.58 380.12,308.1 C380.18,307.2 380.12,306.36 380.18,305.46 C380.18,305.1 380.12,304.74 380.18,304.38 L380.18,301.92 L380.24,301.62 C380.24,301.5 380.3,301.32 380.18,301.2 L380.18,301.08 C380.18,301.02 380.06,301.02 380.06,301.02 C380.06,301.08 380,301.08 380,301.14 C379.94,301.02 379.94,300.84 379.94,300.84 C380.12,300.6 380.18,300.36 380.3,300.12 L380.3,300 C380.3,299.94 380.36,299.82 380.3,299.7 C380.24,299.7 380.24,299.7 380.24,299.64 C380.24,299.58 380.24,299.58 380.3,299.52 L380.42,298.98 C380.48,298.62 380.54,298.26 380.54,297.9 C380.54,297.84 380.48,297.78 380.54,297.78 C380.6,297.66 380.66,297.6 380.66,297.48 L380.66,296.94 L380.78,296.28 C380.84,295.74 380.96,295.2 381.08,294.72 C381.14,294.3 381.2,293.88 381.32,293.46 L381.56,292.2 C381.74,291.48 381.86,290.76 382.04,290.1 L382.46,288.66 C382.46,288.54 382.52,288.42 382.46,288.3 L382.46,288.24 C382.46,288.18 382.46,288.18 382.58,288.12 C382.7,288.12 382.76,288.12 382.88,288.06 C383,288.06 383.12,288 383.18,287.94 C383.3,287.82 383.48,287.76 383.6,287.76 L384.32,287.88 C384.86,288 385.22,288.42 385.1,288.96 C385.1,289.2 385.1,289.44 385.04,289.68 C385.04,289.92 384.92,290.16 384.92,290.4 C384.86,290.52 384.86,290.7 384.86,290.82 C384.98,290.94 384.98,291.12 384.92,291.24 L384.92,291.72 C384.92,291.78 384.98,291.9 384.92,291.96 C384.92,292.02 384.86,292.08 384.86,292.14 L384.8,292.44 C384.68,292.68 384.62,292.98 384.56,293.22 C384.5,293.28 384.5,293.28 384.5,293.34 C384.5,293.4 384.5,293.4 384.56,293.4 C384.56,293.4 384.62,293.34 384.68,293.34 L384.74,293.4 C384.68,293.76 384.68,294.12 384.68,294.42 C384.68,294.54 384.68,294.66 384.74,294.78 C384.74,294.84 384.8,294.9 384.74,294.96 C384.8,295.26 384.74,295.5 384.68,295.74 C384.68,295.92 384.56,296.1 384.5,296.22 C384.44,296.34 384.44,296.46 384.38,296.58 C384.38,296.76 384.32,296.88 384.38,297.06 L384.32,297.54 C384.26,297.72 384.26,297.9 384.26,298.08 C384.26,298.32 384.2,298.62 384.2,298.86 C384.14,299.22 384.08,299.52 384.08,299.88 C384.08,300.12 384.02,300.3 384.08,300.54 C384.02,300.78 383.96,301.02 383.84,301.26 L383.84,301.74 L383.66,302.58 C383.66,302.76 383.66,302.88 383.54,303.06 C383.54,303.06 383.54,303.12 383.48,303.12 C383.42,303.18 383.42,303.18 383.42,303.24 L383.3,303.9 L383.24,303.96 L383.24,303.84 C383.18,303.84 383.24,303.78 383.24,303.72 C383.3,303.66 383.24,303.6 383.18,303.54 C383.18,303.66 383.06,303.72 383,303.84 C383,303.96 382.88,304.14 382.88,304.32 C382.88,304.38 382.82,304.5 382.7,304.56 L382.7,304.68 C382.7,304.74 382.64,304.86 382.7,304.92 C382.82,304.92 382.82,304.8 382.88,304.74 C382.88,304.68 382.94,304.56 382.94,304.5 L383.12,304.38 C383.12,304.44 383.18,304.44 383.18,304.5 C383.24,304.56 383.24,304.56 383.24,304.62 L383.24,304.74 C383.18,305.1 383.3,305.52 383.3,305.88 C383.24,306.06 383.3,306.3 383.24,306.54 L383.18,306.72 C383.18,306.9 383.3,307.02 383.3,307.14 L383.36,307.14 L383.42,307.08 C383.54,306.6 383.84,306.12 383.9,305.64 L383.96,305.52 C384.2,305.1 384.26,304.62 384.38,304.2 C384.38,304.08 384.44,304.02 384.5,303.96 C384.62,303.78 384.74,303.6 384.8,303.42 C384.8,303.36 384.86,303.3 384.92,303.24 C384.98,303.12 385.04,303.06 385.04,303 C385.1,302.58 385.34,302.22 385.52,301.8 C385.64,301.5 385.88,301.14 386.12,300.84 L387.44,298.38 C387.74,297.96 388.1,297.54 388.46,297.18 C388.76,296.82 389.12,296.46 389.54,296.16 C389.96,295.92 390.32,295.74 390.8,295.68 C390.86,295.68 390.98,295.62 391.04,295.62 C391.16,295.62 391.22,295.68 391.28,295.74 L391.52,295.86 C391.82,295.98 392.12,296.04 392.36,296.28 L392.9,296.76 C392.9,296.76 392.96,296.82 392.9,296.88 C392.9,297.06 392.9,297.12 393.02,297.12 C393.2,297.12 393.26,297.18 393.2,297.3 C393.2,297.42 393.26,297.48 393.32,297.54 C393.38,297.66 393.44,297.78 393.44,297.96 L393.38,298.02 C393.38,298.08 393.44,298.08 393.5,298.14 C393.5,298.2 393.56,298.26 393.56,298.32 L393.5,298.74 C393.44,298.8 393.44,298.8 393.5,298.86 C393.56,298.98 393.56,299.04 393.5,299.16 L393.44,299.58 C393.44,299.82 393.44,299.94 393.5,300.12 C393.5,300.18 393.44,300.3 393.5,300.36 C393.56,300.42 393.62,300.54 393.62,300.6 L393.56,300.72 C393.56,300.84 393.56,300.9 393.62,300.96 L393.62,301.68 L393.5,302.28 C393.5,302.46 393.44,302.64 393.68,302.76 C393.74,302.76 393.74,302.88 393.68,303 C393.56,303.3 393.56,303.66 393.5,303.96 L393.44,304.26 Z M390.74,303.24 C390.92,302.7 391.04,302.16 391.16,301.62 C391.22,301.32 391.16,301.02 391.28,300.6 L391.28,300.42 L391.4,298.74 C391.4,298.5 391.46,298.2 391.4,297.96 C391.22,297.36 390.92,297 390.26,296.88 C390.2,296.88 390.14,296.82 390.08,296.82 C389.9,296.82 389.72,296.88 389.54,297 C389.12,297.24 388.76,297.54 388.52,297.96 L388.16,298.44 C387.8,298.86 387.62,299.34 387.38,299.82 L387.32,299.82 C387.08,300.3 386.9,300.78 386.6,301.2 L386.06,302.22 L385.58,303.6 L385.52,303.72 C385.52,303.84 385.52,304.02 385.4,304.14 C385.34,304.32 385.28,304.44 385.28,304.62 C385.28,304.68 385.34,304.74 385.34,304.8 L385.22,304.92 C385.16,305.1 385.04,305.34 385.04,305.52 C384.98,305.7 384.98,305.94 385.04,306.12 L385.04,306.96 C384.98,307.26 384.98,307.5 385.16,307.68 C385.28,307.8 385.28,307.92 385.34,308.04 C385.58,308.58 385.94,308.82 386.48,308.88 L386.66,308.88 C386.96,308.76 387.26,308.76 387.56,308.58 C387.68,308.52 387.86,308.58 387.86,308.46 C387.86,308.46 387.8,308.4 387.8,308.34 C387.8,308.28 387.8,308.22 387.86,308.22 C388.34,307.86 388.82,307.44 389.12,306.9 C389.24,306.72 389.42,306.6 389.48,306.42 C389.54,306.36 389.6,306.3 389.6,306.24 C389.72,305.94 389.78,305.58 390.02,305.34 L390.02,305.22 L390.14,305.1 C390.2,305.04 390.2,304.92 390.26,304.8 C390.26,304.68 390.26,304.62 390.38,304.56 C390.38,304.56 390.32,304.44 390.38,304.38 C390.38,304.32 390.44,304.2 390.44,304.08 C390.5,304.02 390.56,303.96 390.56,303.84 L390.56,303.78 C390.56,303.72 390.56,303.72 390.68,303.66 C390.74,303.66 390.74,303.6 390.74,303.6 C390.68,303.54 390.62,303.48 390.62,303.42 C390.62,303.36 390.68,303.3 390.74,303.24 Z M392.54,296.7 L392.54,296.64 C392.48,296.64 392.48,296.64 392.48,296.7 L392.48,296.76 C392.48,296.76 392.54,296.76 392.54,296.7 Z M383.6,292.13999 C383.6,292.139087 383.600458,292.08 383.66,292.08 L383.54,292.08 C383.599541,292.08 383.6,292.139086 383.6,292.13999 L383.6,292.13999 Z M407.06,308.94 L406.88,309.78 C406.76,309.96 406.76,310.2 406.64,310.38 C406.46,310.5 406.46,310.68 406.46,310.8 C406.4,311.04 406.4,311.28 406.4,311.58 C406.34,311.82 406.22,312.06 406.22,312.3 C406.22,312.36 406.16,312.42 406.1,312.48 C405.98,312.6 405.92,312.78 405.92,312.96 C405.92,313.02 405.86,313.14 405.8,313.26 L405.74,313.8 L405.56,314.16 C405.44,314.4 405.38,314.58 405.32,314.82 C405.26,314.82 405.26,314.88 405.26,314.88 L405.32,314.88 C405.38,314.94 405.38,315.06 405.38,315.12 C405.38,315.24 405.2,315.42 405.14,315.54 C404.9,315.96 404.78,316.38 404.72,316.8 C404.72,316.92 404.72,316.92 404.6,316.98 L404.6,317.1 C404.66,317.1 404.66,317.1 404.72,317.04 L404.9,316.92 L404.96,316.92 L404.9,316.98 C404.9,317.16 404.84,317.28 404.6,317.34 C404.48,317.4 404.42,317.46 404.42,317.64 C404.3,317.76 404.18,317.94 404.18,318.06 L404,318.3 L404.06,318.36 L404.12,318.36 C404.18,318.24 404.36,318.18 404.42,318.06 C404.42,318 404.42,317.94 404.36,317.88 L404.6,317.52 L404.78,317.52 C404.84,317.52 404.84,317.64 404.78,317.7 C404.78,317.7 404.78,317.76 404.72,317.82 C404.6,318.06 404.48,318.36 404.36,318.66 C404.24,318.9 404.12,319.08 403.88,319.2 C403.76,319.26 403.64,319.26 403.52,319.26 C403.46,319.26 403.4,319.32 403.34,319.38 L403.1,319.74 C403.1,319.8 403.16,319.8 403.22,319.8 L403.28,319.74 L403.34,319.8 C403.34,319.86 403.4,319.86 403.4,319.92 L403.22,320.1 L402.98,320.28 C402.8,320.4 402.62,320.46 402.62,320.58 C402.62,320.64 402.68,320.64 402.68,320.7 C402.44,320.88 402.38,321.06 402.14,321.24 C401.96,321.36 401.78,321.6 401.48,321.72 L401.42,321.72 C401.3,321.96 401.06,322.08 400.88,322.2 L400.58,322.38 C400.4,322.62 400.16,322.68 399.92,322.74 C399.5,322.86 399.08,322.92 398.6,322.98 C398.36,322.98 398.18,322.98 397.94,322.92 C397.28,322.86 396.62,322.74 396.02,322.5 C395.84,322.44 395.66,322.32 395.42,322.32 C395.3,322.26 395.18,322.2 395.18,322.02 C395.12,321.9 395.18,321.84 395.06,321.84 C395,321.84 394.94,321.72 394.94,321.72 L394.82,321.36 L394.82,321.24 C394.82,321.18 394.88,321.12 394.94,321.06 C394.94,320.88 394.82,320.76 394.82,320.64 C394.7,320.22 394.7,319.74 394.7,319.32 C394.76,319.02 394.82,318.72 394.76,318.48 C394.76,318.18 394.82,317.94 394.88,317.64 C394.94,317.28 395,316.86 395.12,316.5 L395.12,316.32 L395.42,315.6 L395.42,315.48 C395.72,314.58 396.38,313.92 396.92,313.14 C397.4,312.42 398.06,311.82 398.78,311.28 C399.14,310.98 399.5,310.74 399.92,310.5 C400.4,310.26 400.88,310.02 401.36,309.72 L401.84,309.48 C402.44,309.12 403.1,308.88 403.76,308.64 C403.88,308.64 404,308.58 404,308.4 L404.48,305.22 C404.54,305.1 404.54,304.98 404.6,304.92 L404.72,304.32 C404.78,303.96 404.9,303.6 404.96,303.24 L405.26,301.02 C405.38,300.78 405.44,300.6 405.44,300.36 L405.62,299.16 C405.68,298.86 405.68,298.62 405.74,298.32 L405.74,297.9 L405.68,297.96 C405.5,298.08 405.38,298.2 405.26,298.38 C405.2,298.74 405.02,299.1 404.78,299.4 L404.66,299.52 C404.54,299.88 404.42,300.24 404.24,300.54 C403.94,301.08 403.7,301.56 403.34,302.04 C403.16,302.16 403.1,302.28 403.1,302.4 C402.92,302.76 402.68,303.12 402.44,303.42 C402.38,303.54 402.38,303.66 402.32,303.78 C402.32,303.96 402.14,304.14 402.02,304.26 C401.84,304.44 401.72,304.56 401.66,304.8 C401.66,304.8 401.6,304.86 401.54,304.86 C401.3,305.1 401.12,305.4 400.82,305.7 L400.64,305.82 C400.04,306.06 399.5,306.12 398.9,306.12 C398.12,306.06 397.52,305.64 397.16,305.04 C396.8,304.62 396.62,304.14 396.56,303.6 C396.5,303.12 396.38,302.64 396.26,302.16 L396.32,301.98 C396.32,301.92 396.32,301.86 396.44,301.8 C396.5,301.8 396.56,301.68 396.56,301.56 C396.56,301.44 396.62,301.38 396.56,301.32 C396.5,301.26 396.5,301.2 396.5,301.14 L396.5,301.08 C396.5,301.02 396.62,300.96 396.62,300.9 C396.62,300.84 396.56,300.72 396.56,300.66 C396.56,300.42 396.62,300.18 396.62,299.88 C396.68,299.64 396.74,299.34 396.86,299.04 L397.16,297.9 C397.16,297.66 397.22,297.42 397.34,297.18 C397.46,296.64 397.64,296.1 397.88,295.5 C397.94,295.38 398,295.2 398,295.02 C398.06,294.9 398.06,294.84 398,294.72 L398,294.66 C398,294.6 398,294.6 398.12,294.54 L398.36,294.36 C398.42,294.3 398.54,294.24 398.6,294.24 C398.84,294.24 399.2,294.18 399.44,294.18 C399.68,294.18 399.92,294.24 400.16,294.3 C400.46,294.42 400.76,294.54 401,294.6 C401.24,294.72 401.42,294.9 401.6,295.08 C401.6,295.08 401.66,295.2 401.66,295.26 L401.78,295.62 C401.84,295.68 401.84,295.74 401.84,295.8 C401.84,295.86 401.78,295.86 401.78,295.92 C401.66,296.04 401.66,296.22 401.54,296.4 C401.42,296.52 401.42,296.7 401.36,296.88 C401.36,297 401.3,297.18 401.24,297.36 L401.24,297.48 C401.3,297.48 401.24,297.54 401.24,297.6 C401.18,297.78 401.06,298.02 401,298.26 C401,298.32 400.94,298.44 400.88,298.5 C400.76,298.68 400.7,298.86 400.7,299.1 C400.52,299.7 400.34,300.36 400.28,300.96 L400.22,301.14 C400.1,301.38 400.04,301.56 399.98,301.8 C399.98,302.04 399.92,302.28 399.98,302.52 C399.92,302.64 399.92,302.76 399.86,302.88 C399.74,303 399.74,303.06 399.74,303.12 C399.74,303.18 399.68,303.3 399.74,303.36 L399.86,304.02 L399.98,304.38 C400.1,304.32 400.28,304.32 400.34,304.2 C400.52,304.08 400.7,303.96 400.76,303.84 L402.74,301.2 L403.7,299.82 L403.7,299.64 C403.7,299.58 403.7,299.58 403.76,299.52 C403.94,299.16 404.3,298.92 404.42,298.56 C404.54,298.38 404.66,298.14 404.78,297.96 C404.96,297.66 405.14,297.36 405.26,297.06 C405.26,297 405.26,296.94 405.32,296.88 C405.5,296.76 405.5,296.64 405.56,296.52 C405.8,296.22 405.92,295.86 406.22,295.62 C406.28,295.56 406.34,295.44 406.4,295.32 C406.4,295.26 406.4,295.2 406.34,295.14 C406.28,295.08 406.28,295.02 406.28,294.96 C406.4,294.6 406.4,294.24 406.58,293.88 L406.64,293.76 C406.58,293.64 406.58,293.52 406.64,293.4 L406.76,293.28 L406.82,293.34 C406.88,293.46 407,293.52 407.18,293.52 C407.24,293.52 407.36,293.52 407.42,293.46 L407.72,293.28 C407.78,293.22 407.9,293.1 408.02,293.1 C408.08,293.1 408.08,293.1 408.14,293.16 C408.26,293.1 408.44,293.04 408.56,293.04 C408.86,293.04 409.1,293.28 409.34,293.34 C409.52,293.46 409.7,293.64 409.7,293.94 L409.7,294.36 C409.7,294.42 409.7,294.48 409.64,294.54 C409.58,294.54 409.58,294.6 409.58,294.66 L409.34,296.22 C409.4,296.4 409.34,296.58 409.34,296.76 L409.34,297.78 L409.28,298.02 C409.22,298.14 409.16,298.2 409.16,298.32 C409.1,298.44 409.16,298.56 409.22,298.62 L409.22,298.86 C409.22,298.92 409.16,299.04 409.16,299.1 L409.04,299.58 C409.04,299.7 409.04,299.76 408.92,299.82 L408.86,299.94 C408.8,300.3 408.8,300.66 408.74,301.02 C408.74,301.14 408.74,301.2 408.62,301.26 L408.62,301.38 C408.56,301.62 408.56,301.8 408.56,302.04 L408.5,302.34 C408.38,302.52 408.32,302.64 408.32,302.88 C408.26,303.06 408.26,303.24 408.08,303.42 L408.02,303.78 C408.02,303.78 408.02,303.84 408.08,303.84 C408.08,303.84 408.14,303.72 408.26,303.66 C408.26,303.6 408.32,303.6 408.38,303.6 C408.44,303.66 408.38,303.72 408.38,303.78 L408.38,303.84 C408.38,303.9 408.26,303.96 408.2,304.02 L408.08,304.08 C408.08,304.14 408.14,304.14 408.2,304.2 C408.26,304.2 408.32,304.26 408.32,304.32 C408.26,304.38 408.2,304.44 408.2,304.5 L408.02,304.98 C408.02,305.16 407.9,305.28 407.9,305.46 C407.9,305.52 407.78,305.58 407.78,305.64 C407.6,305.76 407.54,305.94 407.48,306.12 C407.48,306.18 407.48,306.24 407.54,306.3 C407.6,306.42 407.66,306.54 407.66,306.66 C407.6,306.72 407.54,306.84 407.54,306.9 C407.48,307.02 407.42,307.14 407.42,307.26 C407.3,307.68 407.18,308.04 407,308.4 C407,308.58 406.94,308.76 407.06,308.94 Z M402.38,316.32 C402.62,315.72 402.74,315.06 402.92,314.46 L403.04,313.8 C403.04,313.56 403.1,313.38 403.16,313.14 L403.28,312.48 C403.34,312.3 403.34,312.12 403.46,311.94 L403.46,311.82 C403.52,311.34 403.64,310.92 403.82,310.44 C403.82,310.32 403.76,310.2 403.82,310.02 C403.82,309.96 403.82,309.84 403.88,309.78 C403.94,309.78 403.94,309.66 403.88,309.66 C403.88,309.6 403.82,309.6 403.82,309.54 C403.82,309.48 403.88,309.48 403.94,309.42 L403.94,309.36 C404,309.3 404,309.3 403.94,309.24 C403.94,309.18 403.88,309.12 403.88,309.06 C403.88,308.94 403.94,308.94 403.88,308.94 C403.88,308.94 403.76,308.94 403.64,309 L403.04,309.42 C402.98,309.54 402.86,309.6 402.74,309.66 C402.5,309.84 402.32,309.9 402.14,310.08 C401.78,310.32 401.36,310.44 401,310.68 C401,310.74 400.94,310.74 400.94,310.74 L399.92,311.4 C399.86,311.46 399.8,311.52 399.8,311.58 C399.5,311.76 399.32,312 399.14,312.24 C398.72,312.48 398.54,312.9 398.24,313.26 C397.94,313.56 397.76,313.98 397.46,314.28 C397.16,314.58 396.92,314.94 396.62,315.36 C396.5,315.42 396.5,315.48 396.5,315.6 C396.44,316.08 396.32,316.56 396.32,317.04 L396.32,317.94 C396.26,318 396.2,318.12 396.2,318.18 C396.2,318.24 396.2,318.3 396.26,318.36 C396.32,318.66 396.26,318.9 396.2,319.2 L396.2,319.32 C396.38,319.5 396.32,319.68 396.32,319.86 L396.38,320.1 C396.44,320.16 396.44,320.28 396.44,320.4 C396.56,320.58 396.56,320.76 396.74,320.88 L397.16,321.12 C397.46,321.42 397.88,321.3 398.24,321.36 L398.3,321.36 C398.42,321.36 398.42,321.12 398.66,321.06 C398.72,321.06 398.72,321 398.78,320.94 C398.78,320.88 398.84,320.88 398.84,320.82 L399.44,320.64 C399.5,320.64 399.56,320.64 399.56,320.58 C399.62,320.46 399.74,320.4 399.92,320.34 C399.98,320.34 400.1,320.28 400.1,320.22 L400.1,320.16 C400.1,320.1 400.16,320.04 400.22,320.04 C400.34,319.98 400.52,319.92 400.52,319.8 L400.52,319.68 C400.52,319.62 400.64,319.5 400.7,319.5 C400.82,319.44 400.82,319.38 400.82,319.32 L400.82,319.2 C400.88,319.02 400.94,318.84 401.18,318.72 L401.9,317.64 L402.02,317.64 L402.02,317.58 L401.9,317.58 C402.02,317.16 402.2,316.8 402.38,316.32 Z M403.58,319.14 L403.64,319.14 C403.76,319.08 403.82,318.9 403.88,318.78 L403.88,318.66 L403.82,318.66 C403.58,318.84 403.52,318.96 403.52,319.08 C403.52,319.14 403.58,319.14 403.58,319.14 Z M419.6,315.36 C419.36,315.36 419.06,315.36 418.88,315.36 C418.7,315.42 418.52,315.42 418.4,315.42 C418.16,315.36 418.16,315.36 418.16,315.18 C418.22,314.94 418.22,314.82 418.22,314.64 C418.16,314.46 418.1,314.22 418.04,313.92 C417.98,313.62 417.92,313.38 417.92,313.02 C417.86,312.78 417.8,312.66 417.86,312.36 L417.86,310.08 C417.92,309.24 418.04,308.4 418.1,307.5 C418.28,306.48 418.58,305.46 418.88,304.32 C419.24,303.48 419.6,302.58 420.02,301.74 C420.26,301.08 420.74,300.54 420.98,300 C421.28,299.58 421.46,299.16 421.82,298.8 C422.12,298.32 422.42,297.96 422.66,297.48 C422.66,297.3 422.72,297.18 422.72,297 C422.72,296.52 422.72,295.92 422.66,295.32 C422.6,294.84 422.54,294.42 422.48,293.88 L422.48,293.46 C422.42,292.74 422.36,292.02 422.42,291.36 C422.42,290.76 422.24,290.28 422.24,289.68 C422.3,289.26 422.18,288.78 422.18,288.24 L422.18,287.1 C422.3,286.32 422.3,285.6 422.36,284.94 C422.42,284.4 422.6,283.92 422.6,283.5 C422.6,283.32 422.66,283.2 422.66,283.08 C422.72,282.78 422.72,282.42 422.78,282.06 C422.78,281.82 423.02,281.52 422.96,281.28 C422.96,281.22 422.96,281.04 423.02,280.98 C423.14,280.56 423.26,280.2 423.2,279.84 L423.32,279.72 L424.22,279.36 C424.52,279.18 424.7,279.18 425,279.18 C425.36,279.3 425.78,279.36 426.2,279.36 C426.62,279.42 426.98,279.78 426.86,280.2 C426.5,281.04 426.62,282 426.5,282.9 C426.38,283.98 426.44,285.12 426.5,286.26 C426.5,286.44 426.38,286.62 426.44,286.86 L426.44,288.54 C426.38,289.08 426.5,289.56 426.44,290.1 C426.44,290.34 426.5,290.34 426.74,290.34 L426.92,290.34 C427.28,290.52 427.82,290.34 428.18,290.1 C429.08,289.68 429.8,289.08 430.7,288.42 C430.88,288.18 431.06,288.06 431.36,288.06 L431.48,288.06 C431.6,288 431.54,287.82 431.36,287.76 C431.3,287.76 431.36,287.64 431.42,287.64 C432.08,287.34 432.32,286.92 432.86,286.44 C433.34,286.08 433.7,285.6 434,285.06 C434.06,284.94 434.3,284.76 434.48,284.7 C434.72,284.46 434.9,284.28 435.08,283.98 C435.32,283.68 435.56,283.26 435.86,282.9 C436.04,282.66 436.28,282.3 436.34,282 C436.28,282 436.34,281.82 436.46,281.76 C436.7,281.4 436.88,281.22 437.18,280.86 C437.3,280.68 437.36,280.56 437.6,280.56 C438.32,280.44 439.04,280.32 439.82,280.5 C440.18,280.5 440.18,280.62 439.94,280.98 C439.7,281.58 439.46,282.06 438.92,282.54 C438.56,283.08 438.26,283.68 437.84,284.22 C437.48,284.76 437.12,285.24 436.76,285.72 C436.28,286.32 435.68,286.86 435.14,287.34 C434.78,287.46 434.42,287.82 434.18,288.12 C433.88,288.36 433.64,288.6 433.28,288.84 C433.1,289.02 432.74,289.14 432.56,289.26 C432.44,289.44 432.26,289.5 432.14,289.56 C431.78,289.74 431.42,289.92 431.12,290.1 C430.94,290.28 430.88,290.34 430.7,290.46 C430.46,290.7 430.46,290.7 430.7,290.82 C431.06,291.06 431.36,291.18 431.6,291.42 C432.26,291.78 432.92,292.32 433.28,292.92 C433.4,293.16 433.64,293.4 433.76,293.64 C434,294.12 434.24,294.54 434.18,295.02 C434.18,295.44 434.36,295.8 434.54,296.16 C434.6,296.34 434.78,296.46 434.78,296.52 C435.14,297 435.32,297.48 435.32,298.08 C435.26,298.92 435.32,299.76 435.44,300.48 C435.56,300.9 435.62,301.38 435.5,301.86 C435.44,302.46 435.5,303.12 435.68,303.66 C435.62,303.9 435.68,304.14 435.86,304.38 L435.86,304.86 C435.8,305.58 435.92,306.24 435.92,306.9 C435.98,307.32 436.16,307.62 436.28,307.86 C436.52,308.16 436.58,308.52 436.7,308.82 C436.94,309.3 437.12,309.78 437.48,310.32 C437.72,310.92 438.2,311.28 438.56,311.88 C438.62,311.94 438.8,312 438.8,312.18 C438.92,312.24 439.04,312.36 439.16,312.42 C439.22,312.6 439.34,312.6 439.52,312.42 C439.64,312.3 439.76,312.3 439.88,312.36 C440,312.42 440,312.48 440,312.72 C439.88,312.9 439.7,313.08 439.4,313.14 C438.62,313.38 438.08,313.32 437.54,312.84 C437.06,312.36 436.34,311.82 435.98,311.22 C435.56,310.92 435.32,310.44 435.08,310.02 C435.02,309.66 434.84,309.36 434.66,309.18 C434.6,308.76 434.3,308.4 434.12,307.98 C434.12,307.86 434.12,307.86 434.18,307.8 C434.36,307.44 434,307.14 434,306.84 C433.88,306.24 433.7,305.58 433.64,305.1 C433.46,304.44 433.52,303.96 433.28,303.42 C433.22,303 433.16,302.58 433.16,302.22 L433.16,302.16 C432.98,301.74 432.8,301.32 432.68,300.9 C432.68,300.54 432.56,300.24 432.44,300 C432.38,299.76 432.32,299.4 432.26,299.1 C432.08,298.38 431.96,297.9 431.66,297.24 C431.6,297.06 431.48,296.82 431.3,296.58 C431,295.98 430.58,295.26 430.1,294.6 C429.86,294.24 429.62,293.94 429.26,293.52 C429.02,293.28 428.84,292.98 428.48,292.8 C428.12,292.56 427.64,292.38 427.1,292.14 C426.98,292.02 426.8,292.14 426.62,292.2 C426.44,292.26 426.32,292.38 426.38,292.5 C426.32,292.92 426.32,293.22 426.32,293.64 C426.2,294.24 426.32,294.84 426.32,295.44 C426.14,296.04 426.14,296.52 426.02,297.12 C425.9,298.02 425.9,298.92 425.9,299.82 C425.9,300.12 425.9,300.3 425.96,300.66 C426.08,301.08 426.02,301.68 425.9,302.1 C425.72,302.4 425.66,302.58 425.78,302.88 C425.84,303.18 425.72,303.42 425.78,303.66 C425.72,303.84 425.72,304.02 425.66,304.14 C425.66,304.86 425.66,305.58 425.54,306.36 C425.42,306.84 425.36,307.32 425.3,307.68 C425.24,307.98 425.24,308.16 425.18,308.46 C425.06,308.58 425,308.88 424.88,309.06 C424.88,309.24 424.82,309.36 424.76,309.54 L424.76,309.72 C424.7,310.08 424.58,310.38 424.4,310.68 C424.34,310.8 424.34,310.86 424.16,310.98 C423.92,311.7 423.56,312.48 423.14,313.26 C423.02,313.56 422.96,313.8 422.6,314.16 C422.48,314.28 422.36,314.52 422.3,314.7 C422.24,315 421.88,315.18 421.52,315.3 C420.92,315.36 420.14,315.42 419.6,315.36 Z M420.02,311.28 C419.84,311.7 419.84,311.94 419.9,312.18 C419.9,312.42 419.96,312.66 420.02,312.78 C420.08,313.08 420.2,313.26 420.5,313.26 C420.86,313.32 420.98,313.26 421.04,312.96 C421.22,312.42 421.7,311.82 421.7,311.1 L421.7,310.98 C421.76,310.68 421.7,310.38 421.76,310.08 C421.94,309.54 421.88,309.06 422.24,308.52 C422.3,308.46 422.3,308.22 422.3,308.1 C422.06,307.5 422.42,306.96 422.36,306.36 C422.42,306.24 422.6,306.06 422.36,305.94 C422.42,305.88 422.42,305.82 422.48,305.82 C422.6,305.46 422.6,305.1 422.6,304.68 C422.72,304.02 422.72,303.48 422.78,302.82 C422.72,302.34 422.6,301.8 422.72,301.32 C422.72,301.26 422.66,301.2 422.66,301.2 C422.6,301.2 422.48,301.26 422.42,301.32 C422.06,301.86 421.7,302.46 421.52,303.12 C421.4,303.36 421.4,303.54 421.28,303.72 C420.98,304.26 420.74,304.8 420.68,305.4 C420.68,305.76 420.62,306.12 420.38,306.6 C420.26,306.72 420.26,306.9 420.26,307.08 C420.2,307.62 420.14,308.04 420.08,308.52 C420.14,308.58 420.08,308.76 420.08,308.88 C420.02,309.24 420.02,309.54 419.84,309.9 C419.84,310.02 419.84,310.08 419.78,310.2 C419.84,310.38 419.9,310.56 420.02,310.8 C420.08,311.04 420.14,311.16 420.02,311.28 Z M443.782101,297.659976 C443.841401,297.658608 443.9007,297.6 443.96,297.6 C443.96,297.6 444.02,297.6 444.02,297.66 C444.02,297.78 444.08,297.96 444.08,298.14 L444.02,298.2 C443.84,298.38 443.84,298.56 443.78,298.8 C443.78,298.86 443.72,298.92 443.66,298.98 L443.48,299.22 C443.54,299.22 443.6,299.22 443.66,299.28 L443.66,299.34 C443.72,299.34 443.66,299.4 443.66,299.4 C443.48,299.46 443.3,299.64 443.3,299.82 C443.24,300.12 443.12,300.36 443.06,300.6 C443,300.66 442.94,300.78 442.94,300.84 C442.94,300.96 442.94,301.02 443,301.14 C443,301.2 443,301.26 442.94,301.32 C442.88,301.38 442.76,301.5 442.76,301.56 C442.76,301.62 442.82,301.68 442.82,301.74 L442.82,302.1 L442.76,302.1 C442.64,302.16 442.58,302.16 442.58,302.22 L442.64,302.28 C442.7,302.34 442.7,302.34 442.76,302.34 C442.64,302.46 442.64,302.46 442.64,302.52 C442.52,302.58 442.52,302.64 442.52,302.7 C442.52,302.76 442.58,302.88 442.52,302.94 C442.52,303.12 442.34,303.3 442.34,303.54 C442.28,303.66 442.22,303.78 442.22,303.96 L442.28,303.96 C442.34,303.9 442.4,303.84 442.4,303.78 C442.46,303.66 442.46,303.48 442.52,303.36 L442.94,302.82 C443,302.64 443.12,302.52 443.12,302.4 C443.12,302.22 443.18,302.1 443.24,301.98 C443.3,301.98 443.3,301.92 443.36,301.92 L443.42,301.92 C443.48,301.92 443.54,301.86 443.54,301.8 C443.66,301.68 443.6,301.5 443.72,301.44 L444.38,300.3 C444.62,299.94 444.74,299.58 444.92,299.22 C445.28,298.44 445.76,297.72 446.3,297.06 L447.02,296.4 C447.5,296.04 447.86,295.74 448.4,295.5 L449.36,295.14 C449.48,295.14 449.66,295.08 449.84,295.08 C450.08,295.08 450.26,295.14 450.5,295.2 L450.68,295.32 C450.68,295.38 450.74,295.44 450.74,295.5 L450.74,295.62 C450.68,295.74 450.62,295.86 450.56,295.92 C450.5,296.04 450.32,296.1 450.2,296.1 L449.48,296.1 C449.12,296.1 448.82,296.22 448.52,296.34 C447.98,296.58 447.56,296.94 447.14,297.3 C446.96,297.48 446.78,297.66 446.72,297.84 C446.72,297.96 446.6,298.02 446.54,298.08 C446.42,298.32 446.24,298.56 446.18,298.86 L446.06,299.1 C445.7,299.64 445.46,300.24 445.16,300.78 L444.92,301.44 C444.92,301.62 444.8,301.8 444.8,302.04 C444.74,302.22 444.68,302.46 444.56,302.7 C444.5,302.76 444.5,302.88 444.44,302.94 L444.44,303.06 C444.38,303.3 444.32,303.48 444.2,303.72 C443.96,304.14 443.84,304.62 443.78,305.1 L443.72,305.22 C443.78,305.34 443.78,305.52 443.72,305.7 L443.6,306.48 C443.6,306.66 443.54,306.9 443.54,307.08 C443.66,307.38 443.6,307.74 443.54,308.04 C443.54,308.16 443.48,308.28 443.54,308.4 C443.54,308.46 443.6,308.58 443.54,308.64 C443.54,308.7 443.48,308.76 443.48,308.82 L443.12,310.02 C443.06,310.14 443,310.26 442.82,310.26 C442.7,310.32 442.58,310.38 442.46,310.5 C442.46,310.56 442.46,310.62 442.4,310.62 C442.34,310.74 442.28,310.8 442.16,310.86 C441.92,310.86 441.68,310.92 441.5,311.1 C441.5,311.16 441.38,311.16 441.32,311.16 C440.96,311.1 440.6,311.1 440.24,310.92 C440.18,310.86 440.06,310.74 440,310.56 C440.06,310.44 440,310.38 439.88,310.32 C439.82,310.26 439.76,310.2 439.64,310.2 C439.58,310.14 439.58,310.02 439.58,309.9 L439.64,309.66 C439.64,309.54 439.58,309.42 439.64,309.3 C439.64,309.24 439.64,309.24 439.7,309.18 L439.76,308.7 C439.76,308.64 439.82,308.58 439.88,308.52 C440,308.46 440,308.4 440,308.28 L439.94,307.92 C439.94,307.86 439.94,307.86 439.88,307.86 L439.82,307.86 C439.7,307.86 439.64,307.92 439.58,307.92 L439.52,307.92 C439.46,307.92 439.46,307.92 439.46,307.86 L439.46,307.08 C439.52,306.96 439.64,306.9 439.64,306.78 L439.64,306.72 C439.7,306.66 439.7,306.66 439.64,306.66 C439.52,306.6 439.46,306.66 439.46,306.48 L439.52,306.3 C439.52,306.12 439.64,305.88 439.76,305.7 C439.88,305.58 440,305.46 440,305.28 L440.12,304.74 C440.12,304.68 440.12,304.62 440.18,304.56 C440.36,304.44 440.36,304.26 440.42,304.08 C440.48,304.02 440.42,303.96 440.36,303.9 L440.24,303.9 C440.18,303.9 440.18,303.9 440.18,303.96 C440,304.08 439.88,304.08 439.76,304.14 C439.7,304.14 439.58,304.08 439.64,304.02 C439.64,303.66 439.58,303.3 439.64,302.94 C439.7,302.76 439.7,302.64 439.82,302.46 C439.88,302.34 439.88,302.16 439.94,302.04 C439.94,301.92 440,301.92 440.06,301.86 L440.18,301.74 C440.18,301.68 440.12,301.62 440.06,301.56 C439.94,301.38 439.94,301.38 439.94,301.32 L440,300.78 C440,300.66 440.06,300.54 440,300.42 L440,300.36 C440.06,300.24 440.18,300.18 440.18,300.06 C440.18,300 440.18,300 440.12,299.94 C440.06,299.82 440.12,299.7 440.06,299.52 L440.24,298.62 C440.24,298.5 440.3,298.44 440.36,298.38 L440.42,298.38 L440.42,298.32 C440.42,298.26 440.42,298.26 440.36,298.2 C440.24,298.14 440.24,298.08 440.3,297.96 L440.3,297.78 C440.3,297.66 440.36,297.54 440.42,297.42 C440.42,297.42 440.48,297.36 440.48,297.3 C440.48,297.24 440.42,297.24 440.48,297.18 C440.42,297.06 440.36,296.88 440.42,296.7 L440.48,296.4 C440.36,296.28 440.36,296.16 440.42,295.98 L440.54,295.26 C440.54,295.02 440.6,294.84 440.48,294.66 L440.48,294.6 C440.54,294.54 440.54,294.54 440.6,294.54 L441.44,294.54 L441.56,294.42 C441.62,294.36 441.62,294.36 441.68,294.36 L441.8,294.36 C441.86,294.42 441.92,294.42 442.04,294.42 C442.1,294.42 442.22,294.42 442.34,294.36 L442.58,294.36 C442.64,294.36 442.7,294.3 442.76,294.3 C442.94,294.3 443.12,294.42 443.3,294.54 L443.66,294.9 L443.66,295.14 C443.72,295.38 443.78,295.56 443.72,295.8 L443.66,296.16 C443.72,296.46 443.66,296.76 443.6,297.06 C443.6,297.12 443.6,297.12 443.66,297.12 L443.9,297.12 L443.84,297.3 L443.78,297.3 L443.48,297.66 C443.42,297.78 443.36,297.84 443.36,297.96 C443.3,298.02 443.36,298.14 443.36,298.2 C443.36,298.26 443.42,298.26 443.42,298.32 L443.84,298.02 C443.84,298.02 443.96,297.96 443.96,297.9 C443.96,297.84 443.9,297.78 443.84,297.72 C443.84,297.72 443.84,297.664128 443.786085,297.660216 L443.782101,297.659976 Z M443.36,299.16 L443.36,299.1 C443.24,299.28 443.18,299.4 443.12,299.52 L443.18,299.58 C443.18,299.58 443.24,299.58 443.24,299.52 L443.48,299.22 C443.48,299.22 443.42,299.16 443.36,299.16 Z M440.06,309.9 L440,309.9 L440,310.14 L440.18,310.14 L440.24,310.02 C440.24,309.96 440.12,309.9 440.06,309.9 Z M442.82,298.62 L442.94,298.62 L443,298.26 L442.88,298.26 L442.82,298.62 Z M440.42,300.36 L440.54,300.36 L440.54,300.3 L440.48,300.3 L440.42,300.36 Z M439.94,307.32 L439.94,307.26 L439.88,307.32 L439.88,307.38 C439.88,307.38 439.94,307.38 439.94,307.32 Z M450.405763,300.248473 C450.401104,300.230064 450.38,300.215584 450.38,300.18 C450.32,300.18 450.26,300.12 450.26,300.12 C450.2,300.12 450.2,300.18 450.2,300.18 L450.14,300.24 C450.14,300.18 450.14,300.06 450.2,300 C450.26,299.94 450.38,299.94 450.38,299.88 C450.44,299.82 450.38,299.76 450.32,299.7 L450.32,299.52 L450.56,299.4 C450.56,299.34 450.5,299.22 450.5,299.16 C450.62,298.92 450.74,298.68 450.74,298.44 C450.86,298.32 450.92,298.2 451.1,298.2 L451.22,298.2 L451.34,298.32 C451.34,298.32 451.34,298.26 451.4,298.2 L451.7,297.72 C451.88,297.54 451.88,297.24 451.94,297.06 C451.94,296.94 452.06,296.82 452.12,296.76 C452.3,296.7 452.42,296.58 452.6,296.46 L452.78,296.34 C452.84,296.16 452.96,295.98 453.14,295.86 L453.56,295.38 C453.62,295.32 453.56,295.32 453.56,295.32 C453.44,295.26 453.38,295.26 453.38,295.2 C453.38,295.14 453.38,295.14 453.44,295.08 C453.5,295.02 453.5,294.96 453.56,294.9 L453.56,294.66 C453.86,294.42 453.98,294.18 454.1,293.94 C454.46,293.52 454.82,293.16 455.3,292.92 C455.36,292.86 455.36,292.86 455.42,292.86 L455.54,292.86 C455.54,292.86 455.6,292.86 455.6,292.8 C455.66,292.68 455.78,292.68 455.9,292.68 L456.56,292.56 L456.92,292.38 C456.98,292.38 457.04,292.32 457.04,292.32 C457.34,292.2 458.42,291.96 458.66,291.96 L459.44,292.14 C459.62,292.2 459.62,292.44 459.74,292.56 C459.74,292.68 459.8,292.8 459.8,292.92 L459.8,293.04 C459.68,293.34 459.32,293.52 459.02,293.52 C458.96,293.52 458.84,293.52 458.78,293.46 C458.66,293.34 458.36,293.28 458.3,293.04 C458.3,293.04 458.24,292.98 458.18,292.98 C458,293.04 457.82,293.04 457.52,293.16 L456.5,294 C456.44,294 456.38,294.06 456.38,294.12 L455.84,294.78 C455.6,295.02 455.48,295.26 455.3,295.5 C454.94,295.98 454.58,296.4 454.22,296.94 C454.16,297.12 454.04,297.36 453.92,297.54 L453.44,298.08 C453.38,298.14 453.38,298.26 453.38,298.32 L453.32,298.5 C453.2,298.62 453.2,298.74 453.08,298.86 L453.08,298.92 L453.14,298.98 C453.08,299.1 452.96,299.22 452.96,299.46 L452.9,299.58 C452.9,299.76 452.78,300 452.78,300.18 C452.66,300.42 452.6,300.66 452.6,300.9 C452.6,300.96 452.66,300.96 452.72,300.96 L452.78,300.96 C452.84,300.96 452.84,300.9 452.9,300.9 L454.16,299.64 L455.84,297.78 L457.46,296.1 L458.48,294.9 L458.96,294.42 L460.04,293.28 L460.4,292.86 L460.4,292.8 C460.46,292.5 460.7,292.38 461,292.2 C461.18,292.02 461.48,291.96 461.84,291.9 L463.1,291.9 C463.4,291.9 463.58,292.08 463.58,292.38 L463.58,292.44 C463.52,292.56 463.46,292.68 463.46,292.74 L463.46,292.98 C463.4,293.16 463.34,293.28 463.28,293.46 L463.28,293.58 C463.28,293.64 463.28,293.76 463.34,293.82 L463.34,293.88 C463.34,293.94 463.34,294.12 463.28,294.18 C463.16,294.24 463.16,294.36 463.16,294.42 L463.16,294.54 C463.1,294.72 463.04,294.78 463.04,294.9 L462.92,295.02 C462.92,295.08 462.98,295.08 463.04,295.14 C463.1,295.2 463.1,295.26 463.1,295.26 C463.1,295.32 463.04,295.32 462.92,295.38 C462.8,295.62 462.8,295.92 462.68,296.16 C462.62,296.4 462.56,296.64 462.32,296.88 L462.2,297.12 L462.2,297.24 C462.32,297.24 462.32,297.3 462.32,297.36 L462.32,297.48 L462.08,297.78 L461.78,298.08 C461.78,298.14 461.72,298.2 461.72,298.26 C461.66,298.38 461.72,298.5 461.84,298.56 C461.72,298.8 461.72,299.04 461.54,299.28 C461.36,299.52 461.36,299.7 461.3,299.94 L461.24,300.42 C461.24,300.48 461.24,300.54 461.36,300.54 L461.42,300.6 C461.36,300.66 461.42,300.66 461.42,300.72 C461.42,300.78 461.36,300.84 461.36,300.84 C461.18,301.14 461,301.5 460.88,301.8 C460.88,301.98 460.82,302.1 460.76,302.22 C460.76,302.4 460.7,302.58 460.64,302.76 C460.58,302.88 460.52,302.94 460.52,303.06 L460.52,303.3 C460.52,303.42 460.46,303.48 460.46,303.6 L460.34,304.38 L460.4,304.32 L460.64,303.96 L460.7,303.96 L460.64,304.26 C460.58,304.38 460.46,304.56 460.46,304.74 C460.4,304.86 460.4,304.98 460.46,305.1 L460.52,305.16 C460.4,305.34 460.4,305.46 460.34,305.64 L460.34,305.82 C460.34,306 460.46,306.18 460.4,306.42 C460.34,306.66 460.28,306.9 460.22,307.08 C460.16,307.14 460.16,307.2 460.16,307.26 C460.16,307.32 460.16,307.38 460.22,307.38 C460.34,307.5 460.34,307.62 460.34,307.8 C460.34,308.04 460.28,308.28 460.4,308.52 L460.4,308.94 L460.46,309.54 C460.52,309.6 460.52,309.66 460.58,309.66 C460.64,309.66 460.7,309.6 460.7,309.6 C460.88,309.42 461.18,309.3 461.24,309 L461.54,308.64 C461.96,308.1 462.38,307.56 462.74,307.02 L464.12,304.8 C464.66,304.02 465.08,303.18 465.62,302.4 L466.46,301.14 C466.46,301.2 466.52,301.32 466.52,301.38 L466.46,301.44 L465.68,302.76 L465.38,303.3 C465.08,303.96 464.84,304.68 464.48,305.34 L464.24,305.88 C464.06,306.12 463.94,306.42 463.76,306.72 C463.76,306.84 463.7,306.9 463.7,307.02 L462.74,308.4 L462.08,309.48 C461.78,310.02 461.42,310.5 460.88,310.74 L460.64,310.92 C460.4,311.1 460.1,311.28 459.86,311.4 C459.56,311.52 459.32,311.58 458.96,311.64 L458.78,311.64 C458.54,311.64 458.42,311.58 458.18,311.46 C458.12,311.46 458.06,311.4 458,311.4 C457.52,311.34 457.28,311.04 456.98,310.68 C456.86,310.56 456.86,310.44 456.86,310.26 L456.92,310.02 C456.92,309.96 456.92,309.9 456.86,309.9 C456.8,309.9 456.68,309.84 456.62,309.84 C456.56,309.84 456.56,309.84 456.56,309.78 L456.68,309.66 C456.8,309.6 456.8,309.54 456.8,309.42 C456.74,309 456.68,308.58 456.44,308.22 C456.5,308.16 456.5,308.1 456.44,308.04 L456.5,307.62 C456.5,307.5 456.44,307.5 456.32,307.44 L456.32,307.2 C456.5,307.02 456.56,306.84 456.62,306.66 C456.62,306.54 456.56,306.48 456.56,306.36 L456.74,304.92 L456.8,304.8 C456.86,304.68 456.92,304.56 456.92,304.44 C456.98,304.38 456.98,304.26 456.92,304.14 C456.92,304.08 457.04,304.02 457.04,303.96 C457.1,303.9 457.1,303.78 457.1,303.72 C457.16,303.66 457.16,303.6 457.04,303.54 L457.04,303.42 C457.34,303.12 457.34,302.82 457.46,302.52 C457.46,302.46 457.34,302.46 457.34,302.4 C457.34,302.34 457.28,302.28 457.34,302.28 C457.4,302.16 457.46,302.04 457.46,301.92 L457.58,301.14 C457.58,301.08 457.7,301.02 457.76,300.96 C457.76,300.84 457.7,300.78 457.7,300.66 C457.88,300.18 458,299.7 458.18,299.28 C458.24,299.16 458.3,299.04 458.3,298.92 L458.36,298.74 C458.36,298.68 458.42,298.56 458.42,298.44 L459.2,296.4 L459.2,296.1 C459.26,295.98 459.26,295.92 459.32,295.8 C459.38,295.5 459.5,295.2 459.62,294.96 L459.68,294.9 L459.62,294.9 C459.38,295.08 459.2,295.2 459.02,295.44 C458.78,295.86 458.42,296.16 458.12,296.58 L457.04,297.84 C456.8,298.14 456.56,298.5 456.26,298.8 L455.6,299.64 L455.24,300.12 C455.06,300.24 454.88,300.36 454.82,300.6 L454.76,300.72 C454.52,300.9 454.28,301.14 454.1,301.38 C453.86,301.62 453.56,301.8 453.38,301.98 L452.78,302.46 C452.6,302.58 452.48,302.64 452.3,302.7 C452.18,302.7 452.12,302.76 452.06,302.76 C451.94,302.88 451.7,302.94 451.58,302.94 C451.46,302.94 451.4,302.88 451.28,302.82 C451.1,302.76 450.92,302.64 450.8,302.52 C450.44,302.34 450.26,301.98 450.2,301.62 C450.14,301.62 450.14,301.56 450.14,301.56 L450.2,301.5 C450.26,301.44 450.32,301.38 450.32,301.32 L450.38,300.9 C450.32,300.84 450.32,300.78 450.26,300.78 L450.2,300.84 C450.14,300.84 450.08,300.9 450.08,300.9 L450.08,300.84 C450.08,300.78 450.08,300.78 450.14,300.78 C450.2,300.66 450.38,300.48 450.56,300.48 L450.62,300.42 L450.62,300.3 C450.68,300.18 450.74,300.12 450.74,300 C450.74,300 450.74,299.94 450.68,299.88 C450.68,299.88 450.62,299.94 450.56,299.94 L450.405763,300.248473 L450.405763,300.248473 Z M481.58,301.08 C481.52,301.02 481.52,301.02 481.58,300.96 C481.58,300.9 481.64,300.84 481.7,300.78 C481.76,301.56 481.7,302.4 481.58,303.24 C481.52,303.36 481.46,303.54 481.4,303.72 C481.28,304.38 481.04,305.1 480.8,305.76 C480.74,305.88 480.68,305.94 480.68,306.06 C480.56,306.9 480.26,307.68 479.96,308.52 C479.84,308.82 479.66,309.12 479.48,309.48 C479.36,309.72 479.24,309.96 479.18,310.26 L479.18,310.44 C479.12,310.5 479.12,310.56 479.06,310.62 C478.88,310.92 478.82,311.28 478.7,311.64 L478.34,312.78 L478.04,313.74 C477.86,314.1 477.62,314.4 477.38,314.76 C477.26,314.94 477.02,315.12 476.84,315.24 C476.36,315.48 475.88,315.6 475.46,315.6 L475.22,315.6 C474.86,315.6 474.5,315.54 474.08,315.42 C473.66,315.24 473.3,314.88 473.06,314.46 C472.7,313.98 472.46,313.44 472.16,312.9 C472.04,312.72 471.86,312.54 471.92,312.3 C471.98,312 471.92,311.76 471.8,311.58 C471.74,311.58 471.74,311.46 471.74,311.4 C471.74,311.34 471.74,311.28 471.68,311.28 C471.5,311.16 471.44,310.92 471.5,310.74 C471.44,310.56 471.5,310.38 471.32,310.2 C471.26,310.02 471.26,309.84 471.32,309.6 C471.32,309.54 471.32,309.48 471.2,309.48 L471.14,309.24 C471.02,309.18 470.96,309.12 470.96,309.06 C470.96,309 471.08,308.94 471.14,308.88 L471.14,308.82 C471.14,308.76 471.08,308.7 471.02,308.64 C470.96,308.64 470.96,308.58 470.96,308.46 L470.96,308.34 C470.96,308.22 471.02,308.1 470.96,308.04 L470.9,307.8 C470.84,307.56 470.78,307.38 470.54,307.32 C470.42,307.26 470.42,307.2 470.36,307.08 L470.3,306.24 C470.24,306.06 470.06,305.94 470.12,305.76 C470.12,305.58 470.06,305.4 470,305.22 C469.94,305.1 469.88,304.92 469.88,304.74 C469.82,304.74 469.82,304.68 469.76,304.62 C469.7,304.68 469.7,304.74 469.64,304.74 C469.58,304.86 469.52,304.92 469.52,305.04 C469.4,305.82 468.92,306.48 468.44,307.14 L468.2,307.74 C468.02,308.16 467.72,308.58 467.3,308.88 C467.06,309.06 466.76,309.18 466.46,309.18 C466.1,309.12 465.8,309.06 465.56,308.94 C465.44,308.94 465.26,308.82 465.08,308.76 C465.02,308.7 464.96,308.64 465.02,308.52 C465.02,308.28 465.02,308.04 464.96,307.86 L464.9,306.48 L464.9,305.52 L464.96,305.1 C464.96,304.68 465.02,304.26 464.96,303.9 C464.9,303.78 464.96,303.6 464.96,303.42 L465.02,303.06 L464.96,303.06 C465.02,302.94 465.08,302.76 465.08,302.64 C465.14,302.28 465.08,301.98 465.14,301.68 L465.14,301.56 L465.32,300.12 L465.56,298.38 C465.56,298.38 465.62,298.32 465.68,298.32 L465.68,297.72 L465.86,296.82 C465.86,296.58 465.92,296.28 466.04,296.04 C466.04,295.74 466.1,295.44 466.1,295.14 C466.16,295.02 466.22,294.9 466.22,294.78 L466.34,294.12 C466.46,293.76 466.52,293.34 466.58,292.98 C466.7,292.5 466.76,292.02 466.88,291.54 C466.88,291.24 466.94,291 467.06,290.76 C467.18,290.1 467.24,289.44 467.48,288.78 L467.78,287.58 C467.78,287.4 467.84,287.22 467.72,287.04 L467.72,286.92 C467.72,286.86 467.78,286.8 467.84,286.74 C468.02,286.62 468.26,286.44 468.5,286.44 L469.46,286.26 C469.58,286.26 469.7,286.26 469.82,286.38 C469.94,286.44 470.06,286.44 470.18,286.44 C470.36,286.44 470.48,286.44 470.66,286.5 C470.84,286.5 470.9,286.62 470.9,286.8 C470.96,286.98 470.96,287.16 470.96,287.34 C471.02,287.64 470.96,287.88 470.9,288.18 C470.84,288.54 470.72,288.9 470.72,289.26 L470.66,289.5 C470.6,289.8 470.48,290.04 470.48,290.34 L470.42,290.76 C470.42,291.06 470.36,291.36 470.3,291.66 C470.18,292.08 470.12,292.44 470.06,292.86 C470.06,293.04 470,293.28 469.82,293.52 L469.76,293.82 C469.82,294.06 469.76,294.24 469.76,294.48 C469.7,294.78 469.64,295.14 469.52,295.44 L469.34,296.52 C469.34,296.58 469.34,296.7 469.22,296.76 C469.16,296.76 469.1,296.88 469.1,296.94 C469.1,297.06 469.16,297.18 469.1,297.3 C469.1,297.42 469.04,297.48 469.04,297.6 L468.92,298.26 C468.86,298.74 468.68,299.16 468.62,299.64 C468.56,300.06 468.38,300.48 468.32,300.84 C468.26,301.02 468.26,301.2 468.08,301.32 C468.02,301.32 468.02,301.38 467.96,301.44 L467.96,301.56 L468.02,301.56 L468.08,301.5 L468.26,301.5 L468.26,301.62 C468.14,301.74 468.02,301.86 468.02,301.98 C468.02,302.04 467.96,302.16 468.02,302.22 L468.02,302.34 C468.02,302.46 467.9,302.64 467.9,302.76 C467.9,302.88 467.78,303.06 467.78,303.18 L467.78,303.36 C467.78,303.48 467.72,303.6 467.54,303.72 L467.54,303.9 C467.6,304.02 467.54,304.08 467.54,304.14 C467.54,304.26 467.42,304.44 467.36,304.56 L467.36,304.62 L467.54,304.8 L467.66,304.68 L468.02,303.96 C468.32,303.18 468.74,302.46 469.16,301.68 L469.94,300.48 C470.12,300.12 470.36,299.76 470.6,299.4 C470.9,298.92 471.14,298.44 471.44,298.02 C471.62,297.72 471.92,297.48 472.04,297.24 C472.34,296.94 472.58,296.58 472.82,296.28 C473.36,295.56 473.96,295.02 474.62,294.42 C475.34,293.82 476.18,293.4 476.96,293.1 C477.5,292.92 478.04,292.74 478.52,292.74 L479.42,292.92 C479.78,292.98 479.96,293.22 480.08,293.52 C480.26,293.88 480.44,294.3 480.38,294.78 L480.32,295.08 C480.26,295.38 480.2,295.68 480.08,295.98 C479.9,296.28 479.66,296.58 479.42,296.88 L478.94,297.6 C478.76,297.78 478.7,297.96 478.46,298.02 C478.28,298.14 478.16,298.32 478.1,298.5 C478.1,298.68 478.04,298.74 477.86,298.74 C477.86,298.74 477.74,298.8 477.74,298.86 C477.68,299.16 477.44,299.34 477.32,299.58 C477.26,299.7 477.14,299.82 477.08,299.82 C476.66,299.94 476.6,300.24 476.3,300.48 C476.24,300.54 476.18,300.66 476.18,300.66 C475.94,300.78 475.76,300.9 475.58,301.08 C475.22,301.14 474.98,301.44 474.68,301.62 C474.26,301.86 473.84,302.16 473.48,302.46 C473.42,302.46 473.36,302.52 473.24,302.58 C472.76,302.64 472.4,302.94 471.98,303.12 C471.86,303.18 471.86,303.18 471.86,303.24 C471.8,303.3 471.8,303.3 471.86,303.36 C472.04,303.48 472.16,303.66 472.16,303.9 C472.16,303.96 472.22,303.96 472.22,304.02 C472.46,304.5 472.58,305.1 472.7,305.58 C472.76,305.76 472.76,305.94 472.76,306.06 L472.82,306.48 C472.94,306.72 473,306.96 472.94,307.2 C472.94,307.44 472.94,307.62 473.06,307.8 C473.18,308.1 473.18,308.4 473.3,308.7 C473.36,309 473.48,309.3 473.66,309.54 C473.66,309.6 473.72,309.66 473.72,309.72 C473.78,310.02 473.84,310.38 473.96,310.68 C473.96,310.74 473.96,310.8 474.02,310.86 C474.08,310.98 474.14,311.16 474.08,311.34 C474.02,311.64 474.14,311.94 474.26,312.18 C474.38,312.6 474.56,313.02 474.8,313.44 C474.92,313.62 475.04,313.86 475.16,313.98 L475.28,314.22 C475.22,314.34 475.28,314.4 475.34,314.46 C475.4,314.52 475.4,314.58 475.46,314.58 C475.52,314.58 475.58,314.52 475.58,314.52 L476.06,314.04 C476.3,313.74 476.48,313.44 476.54,313.14 L477.14,312.12 C477.38,311.64 477.68,311.16 477.86,310.68 L478.28,309.78 C478.52,309.42 478.7,308.94 478.82,308.52 C478.94,308.16 478.94,307.86 479,307.5 L479.18,306.78 C479.36,306.48 479.42,306.18 479.54,305.88 C479.66,305.4 479.84,304.86 480.08,304.32 C480.2,304.02 480.26,303.72 480.44,303.42 C480.62,303.12 480.68,302.82 480.8,302.58 L481.16,301.74 L481.4,301.26 L481.46,301.2 C481.52,301.2 481.58,301.2 481.58,301.14 L481.58,301.08 Z M471.14,302.22 C471.56,302.04 471.98,301.86 472.4,301.56 C472.58,301.44 472.76,301.32 472.94,301.26 C473.18,301.14 473.36,301.08 473.54,300.96 C473.6,300.9 473.72,300.9 473.72,300.9 C473.78,300.96 473.84,300.96 473.84,300.96 C473.9,300.96 473.9,300.9 473.9,300.84 C474.02,300.36 474.32,300.06 474.8,299.94 C474.86,299.94 474.92,299.88 474.98,299.88 C475.1,299.82 475.1,299.76 475.1,299.7 C475.1,299.7 475.04,299.64 474.98,299.64 C474.92,299.64 474.92,299.7 474.92,299.7 C474.86,299.7 474.86,299.7 474.8,299.64 C474.8,299.64 474.8,299.58 474.86,299.58 C475.16,299.22 475.4,298.8 475.82,298.5 C475.88,298.5 475.94,298.44 475.94,298.38 C476,298.14 476.12,298.08 476.3,297.96 C476.42,297.84 476.54,297.78 476.54,297.66 L476.6,297.54 C476.6,297.42 476.66,297.24 476.84,297.12 C476.9,297.06 476.96,297 476.96,296.88 C477.02,296.76 477.08,296.7 477.14,296.58 L478.28,294.42 C478.34,294.24 478.46,294.12 478.46,293.94 L478.46,293.82 C478.52,293.64 478.4,293.58 478.28,293.58 C478.22,293.58 478.16,293.58 478.1,293.64 C477.56,293.76 477.02,294.06 476.54,294.3 C476.42,294.36 476.3,294.42 476.24,294.54 C475.94,294.84 475.58,295.02 475.28,295.38 L474.14,296.76 C473.54,297.42 473,298.14 472.52,298.86 C472.34,299.22 472.1,299.52 471.98,299.88 L471.8,300.18 L471.56,300.54 L470.78,301.98 C470.78,302.04 470.72,302.1 470.66,302.16 C470.66,302.22 470.78,302.28 470.78,302.28 C470.9,302.28 471.02,302.28 471.14,302.22 Z M480.92,302.76 L480.92,302.7 C480.92,302.64 480.92,302.64 480.86,302.64 L480.86,302.7 L480.92,302.76 Z M470.36,305.88 L470.36,305.76 L470.3,305.82 L470.36,305.88 Z M485.724444,289.739722 C485.738333,289.738333 485.78,289.73 485.78,289.68 C485.84,289.62 485.84,289.56 485.78,289.5 C485.9,289.32 486.08,289.26 486.2,289.26 C486.32,289.26 486.44,289.32 486.56,289.32 C486.8,289.32 486.98,289.26 487.22,289.2 L487.34,289.2 C487.46,289.2 487.7,289.14 487.76,289.08 C488,289.08 488.24,288.96 488.48,288.96 L489.08,288.96 C489.38,289.08 489.74,289.2 489.92,289.56 C489.86,289.68 490.1,289.8 490.04,290.04 C490.04,290.1 490.22,290.22 490.22,290.28 C490.46,290.4 490.46,290.64 490.46,290.82 C490.46,291.12 490.46,291.3 490.52,291.54 C490.52,291.72 490.58,291.9 490.64,291.96 C490.7,292.08 490.7,292.2 490.7,292.26 L490.64,292.38 L490.46,292.38 L490.46,292.62 L490.58,292.8 L490.52,293.16 L490.58,293.28 L490.7,293.34 C490.7,293.4 490.64,293.46 490.58,293.52 C490.52,293.7 490.46,293.76 490.4,293.94 L490.34,294.54 C490.28,294.72 490.22,294.9 489.98,294.96 L489.8,295.32 C489.68,295.86 489.44,296.34 489.08,296.76 L488.9,296.94 L488.66,297.3 C488.36,297.48 488.18,297.78 487.94,298.08 C487.88,298.2 487.82,298.26 487.82,298.32 C487.4,298.44 487.16,298.56 486.92,298.68 L486.62,298.8 L486.14,298.92 C485.84,299.04 485.48,299.1 485.24,299.1 C485.06,299.1 485,299.1 484.82,299.04 C484.64,299.04 484.64,299.04 484.58,299.22 C484.52,299.4 484.46,299.7 484.22,299.88 L484.22,300.06 C484.16,300.6 484.04,301.32 483.98,301.86 C483.92,302.34 483.98,302.76 483.92,303.18 C483.86,303.36 483.92,303.6 483.86,303.84 C483.86,304.38 483.98,304.8 483.98,305.28 L483.98,305.34 C483.98,305.76 484.1,306.18 484.28,306.6 C484.58,307.02 485,307.38 485.54,307.38 L486.14,307.38 C486.38,307.38 486.56,307.2 486.74,307.08 C487.22,306.6 487.64,306.18 488,305.64 C488.24,305.22 488.6,304.8 488.84,304.44 C489.08,304.2 489.2,303.9 489.44,303.6 C489.62,303.36 489.8,303.12 490.04,302.76 C490.1,302.64 490.22,302.52 490.22,302.4 C490.28,302.34 490.34,302.28 490.4,302.1 L490.4,301.92 C490.4,301.86 490.46,301.8 490.52,301.8 L490.94,301.38 C491,301.26 490.88,301.02 491.18,301.02 L491.24,300.72 C491.42,300.6 491.48,300.54 491.48,300.48 C491.48,300.42 491.48,300.42 491.42,300.36 C491.42,300.3 491.36,300.3 491.42,300.24 C491.42,300.18 491.48,300.18 491.54,300.12 C491.6,300.06 491.66,299.88 491.72,299.76 C491.72,299.7 491.72,299.58 491.78,299.58 C491.72,300.36 491.66,301.08 491.72,301.74 L491.42,302.22 C491.3,302.58 491.06,302.94 490.82,303.36 C490.76,303.72 490.46,304.08 490.28,304.38 C490.04,304.62 489.86,304.86 489.74,305.28 C489.68,305.28 489.68,305.4 489.62,305.4 C489.38,305.64 489.26,305.88 489.14,306.18 L488.72,306.78 C488.6,307.08 488.42,307.38 488.3,307.62 C488.24,307.74 488,307.86 487.88,308.04 L487.64,308.4 C487.22,308.7 486.8,309 486.32,309.18 L486.26,309.18 C486.14,309.18 486.08,309.24 486.02,309.3 C485.84,309.36 485.66,309.36 485.6,309.48 C485.36,309.6 485.18,309.66 484.88,309.66 C484.64,309.66 484.4,309.72 484.16,309.72 L483.38,309.72 C483.2,309.66 483.02,309.66 482.96,309.66 C482.96,309.66 482.9,309.6 482.96,309.6 L482.96,309.48 C482.96,309.48 482.9,309.48 482.9,309.42 L482.84,309.3 C482.66,309.12 482.42,309.06 482.36,308.82 C482.3,308.76 482.24,308.76 482.24,308.7 C482.24,308.64 482.3,308.64 482.36,308.64 L482.48,308.64 C482.6,308.7 482.66,308.76 482.72,308.76 C482.84,309.12 483.02,309.18 483.38,309.18 L483.44,309.12 C483.44,309.12 483.44,309.06 483.38,309.06 C483.2,309 483.2,308.82 483.08,308.76 C483.02,308.64 483.02,308.52 482.9,308.46 C482.78,308.34 482.72,308.28 482.72,308.1 C482.6,307.86 482.48,307.68 482.36,307.56 C482.24,307.5 482.18,307.5 482.24,307.44 C482.06,307.38 481.94,307.26 481.88,307.14 C481.82,307.08 481.82,307.08 481.88,307.02 C481.76,306.9 481.76,306.78 481.7,306.78 C481.64,306.78 481.58,306.84 481.52,306.9 C481.52,306.9 481.52,307.02 481.46,307.02 C481.4,307.02 481.34,306.9 481.34,306.84 L481.4,306.48 L481.22,306.18 C481.22,306.18 481.16,306.06 481.1,306 C481.1,306.06 481.1,306.12 481.04,306.18 L480.92,304.86 L481.04,304.8 C481.1,304.56 481.16,304.38 481.16,304.08 L481.28,303.48 L481.34,303.48 C481.52,303.36 481.7,303.24 481.7,302.94 L482,301.26 L481.94,300.54 L481.94,300.3 C482,300.24 482.06,300.18 482.06,300.06 L482.06,299.7 C482,299.52 482.06,299.28 482.06,299.22 C482.06,299.16 482,299.16 482,299.16 C481.94,299.16 481.94,299.16 481.94,299.22 C481.94,299.22 481.88,299.28 481.88,299.34 L481.7,300.48 C481.58,300.66 481.52,300.9 481.46,301.14 C481.46,301.14 481.46,301.2 481.4,301.2 C481.34,301.02 481.34,300.84 481.34,300.66 L481.46,299.88 C481.58,299.82 481.58,299.76 481.58,299.7 C481.58,299.7 481.58,299.64 481.52,299.58 L481.64,298.8 C481.76,298.56 481.82,298.38 481.88,298.08 C481.94,297.9 481.88,297.66 481.94,297.6 L481.94,297.48 C482.06,296.94 482.12,296.4 482.36,295.92 L482.42,295.56 C482.42,295.5 482.42,295.44 482.48,295.44 L482.54,295.44 C482.54,295.5 482.6,295.5 482.6,295.5 L482.6,295.44 L482.66,295.38 C482.84,295.2 482.96,294.96 483.02,294.72 L483.02,294.6 C482.96,294.6 482.9,294.66 482.9,294.66 L482.84,294.66 C482.78,294.66 482.72,294.6 482.78,294.54 C482.9,294.12 482.96,293.82 483.14,293.52 C483.26,293.4 483.26,293.34 483.26,293.28 C483.26,293.1 483.38,293.04 483.5,292.92 L483.56,292.86 C483.56,292.86 483.56,292.8 483.5,292.8 C483.5,292.74 483.56,292.68 483.68,292.62 C483.8,292.5 483.8,292.44 483.8,292.44 L483.86,292.08 C483.92,291.96 483.92,291.96 483.98,291.9 L483.98,291.78 C483.98,291.72 483.98,291.72 484.04,291.66 C484.16,291.54 484.22,291.42 484.22,291.24 C484.28,291.06 484.4,290.88 484.52,290.7 C484.7,290.58 484.82,290.34 484.94,290.22 L485,290.16 C485,290.1 484.94,290.04 485,289.92 C485,289.8 485.06,289.8 485.24,289.8 C485.3,289.8 485.42,289.62 485.54,289.62 C485.66,289.62 485.72,289.56 485.78,289.5 C485.78,289.56 485.78,289.56 485.72,289.62 C485.668292,289.671708 485.705708,289.723416 485.717037,289.736721 L485.724444,289.739722 Z M484.82,295.74 C484.76,295.8 484.76,295.86 484.76,295.86 L484.82,295.86 C484.94,296.04 484.94,296.16 485.06,296.16 C485.12,296.16 485.18,296.22 485.3,296.28 C485.48,296.4 485.54,296.58 485.66,296.82 C485.66,297.06 485.78,297.18 485.84,297.42 C485.9,297.54 486.02,297.6 486.08,297.6 C486.32,297.54 486.44,297.54 486.62,297.42 C487.1,297.18 487.4,296.88 487.76,296.52 C488.12,296.16 488.36,295.74 488.54,295.2 C488.54,295.14 488.54,295.08 488.48,295.08 C488.54,294.54 488.48,294.06 488.54,293.58 C488.48,293.46 488.54,293.34 488.36,293.22 L488.3,293.04 C488.3,292.56 488.06,292.26 487.94,291.84 C487.82,291.78 487.76,291.66 487.76,291.54 C487.76,291.48 487.76,291.36 487.58,291.36 L487.52,291.36 C487.46,291.36 487.4,291.3 487.4,291.24 C487.34,291.18 487.34,291.18 487.28,291.18 C487.16,291.18 487.04,291.18 487.04,291.3 C486.8,291.54 486.62,291.9 486.44,292.2 L486.32,292.32 C486.32,292.44 486.2,292.62 486.08,292.74 C485.9,293.04 485.78,293.34 485.66,293.7 C485.6,293.82 485.6,294.06 485.42,294.12 L485.42,294.18 C485.3,294.48 485.12,294.72 485.06,294.96 L485.06,295.14 C485.06,295.14 485.12,295.2 485.12,295.26 C485.12,295.32 485,295.44 484.94,295.44 L484.94,295.68 C484.94,295.68 484.88,295.74 484.82,295.74 Z M482.66,296.7 C482.72,296.64 482.72,296.52 482.78,296.34 C482.72,296.28 482.66,296.22 482.66,296.1 L482.66,296.04 L482.36,296.28 C482.3,296.28 482.24,296.52 482.24,296.64 L482.24,296.7 C482.36,296.82 482.3,296.88 482.3,297.06 L482.3,297.18 L482.42,297.18 L482.66,296.7 Z M484.28,309.6 L484.34,309.54 C484.28,309.54 484.28,309.48 484.28,309.48 C484.22,309.42 484.16,309.42 484.16,309.42 C483.92,309.42 483.74,309.42 483.68,309.48 L483.62,309.54 C483.62,309.54 483.68,309.54 483.68,309.6 C483.74,309.66 483.74,309.66 483.86,309.66 C483.98,309.66 484.16,309.66 484.28,309.6 Z M488.18,291.42 L488.18,291.54 C488.24,291.66 488.36,291.66 488.48,291.72 C488.48,291.66 488.54,291.66 488.54,291.6 C488.54,291.54 488.48,291.42 488.3,291.36 C488.3,291.36 488.24,291.36 488.18,291.42 Z M488.54,292.08 C488.54,292.14 488.54,292.14 488.48,292.2 C488.42,292.38 488.6,292.44 488.72,292.5 L488.78,292.44 L488.72,292.44 C488.72,292.32 488.72,292.2 488.66,292.08 L488.54,292.08 Z M487.76,291.18 C487.76,291.3 487.94,291.42 488.12,291.42 L488.12,291.36 L488,291.12 C488,291.12 487.82,291.18 487.76,291.18 Z M482.48,307.08 C482.54,307.08 482.6,307.02 482.6,307.02 C482.54,306.84 482.54,306.78 482.6,306.66 L482.48,306.66 C482.42,306.66 482.36,306.78 482.36,306.78 L482.48,307.08 Z M481.46,306.18 L481.4,306.48 C481.46,306.54 481.58,306.54 481.58,306.54 C481.58,306.48 481.58,306.42 481.52,306.36 C481.58,306.3 481.58,306.3 481.46,306.18 Z M482.12,297.78 C482.18,297.84 482.24,297.66 482.3,297.6 L482.24,297.6 C482.18,297.6 482.12,297.6 482.06,297.72 C482.06,297.78 482.06,297.78 482.12,297.78 Z M488.84,293.04 L488.78,293.16 L488.84,293.22 C488.9,293.22 488.96,293.16 488.96,293.1 C488.96,293.04 488.96,293.04 488.84,293.04 Z M486.2,289.38 C486.14,289.38 486.14,289.38 486.14,289.44 C486.14,289.5 486.14,289.5 486.2,289.5 L486.26,289.44 C486.26,289.38 486.26,289.38 486.2,289.38 Z M482.96,308.28 C483.02,308.28 483.02,308.28 483.08,308.22 C483.02,308.22 483.08,308.16 483.02,308.16 L482.9,308.22 C482.96,308.22 482.96,308.28 482.96,308.28 Z M482.12,306.18 L482,306 L482,306.18 L482.12,306.18 Z M481.04,305.1 C481.1,305.1 481.1,305.1 481.1,305.04 C481.1,305.04 481.04,305.04 481.04,304.92 L481.04,305.1 Z M483.62,309.24 C483.62,309.18 483.68,309.18 483.68,309.18 C483.68,309.18 483.68,309.12 483.62,309.12 L483.62,309.24 Z M482.018374,305.78775 C482.044677,305.851774 482,305.948225 482,306 L482.06,305.88 C482.06,305.83763 482.06,305.795259 482.038871,305.774018 L482.018374,305.78775 Z M504.025536,306.399615 C504.035435,306.376962 504.063038,306.338481 504.14,306.3 C504.14,306.18 504.2,306.06 504.2,305.94 C504.26,305.82 504.2,305.7 504.26,305.52 L504.44,305.64 C504.56,305.64 504.62,305.64 504.68,305.52 C504.68,305.34 504.68,305.34 504.44,305.28 L504.38,305.22 L504.5,304.8 C504.5,304.74 504.5,304.62 504.56,304.56 L504.62,304.32 C504.56,304.2 504.56,304.08 504.62,303.96 C504.62,303.9 504.62,303.78 504.74,303.66 C504.74,303.6 504.74,303.6 504.68,303.54 C504.74,303.54 505.1,302.7 505.16,302.64 C505.7,301.56 506.48,300.66 507.26,299.76 C507.32,299.58 507.5,299.46 507.62,299.34 C507.74,299.28 507.86,299.28 507.98,299.28 C508.04,299.28 508.1,299.28 508.16,299.34 C508.22,299.4 508.22,299.46 508.16,299.58 C508.16,299.76 508.04,299.94 507.92,300.12 C507.14,301.14 506.48,302.28 506.12,303.48 C506,303.84 505.82,304.26 505.76,304.68 C505.7,304.86 505.7,304.98 505.76,305.16 C505.76,305.52 505.82,305.82 505.76,306.18 C505.76,306.3 505.7,306.48 505.64,306.6 C505.58,306.72 505.52,306.78 505.52,306.9 C505.46,307.08 505.52,307.32 505.58,307.5 C505.64,307.62 505.64,307.74 505.58,307.86 C505.64,308.16 505.58,308.4 505.52,308.64 C505.52,308.82 505.46,309.06 505.4,309.24 C505.28,309.6 505.1,309.96 504.86,310.26 C504.56,310.56 504.26,310.68 504.02,310.98 C503.96,311.04 503.84,311.1 503.78,311.1 C503.54,311.22 503.3,311.34 503.06,311.4 C502.88,311.46 502.7,311.46 502.52,311.46 C502.28,311.46 502.1,311.4 501.86,311.28 C501.62,311.16 501.38,311.04 501.26,310.8 C501.26,310.74 501.2,310.68 501.2,310.62 L501.2,310.56 C501.2,310.5 501.2,310.44 501.14,310.38 C500.96,310.2 500.96,310.08 500.9,309.9 L500.78,309.54 C500.72,309.54 500.72,309.48 500.72,309.42 C500.72,309.36 500.72,309.36 500.78,309.36 C500.9,309.3 500.96,309.3 500.96,309.24 C500.96,309.18 500.9,309.12 500.9,309.12 C500.96,308.94 500.9,308.82 500.96,308.58 L500.66,308.46 C500.54,308.4 500.48,308.28 500.54,308.16 C500.54,308.1 500.54,308.1 500.6,308.04 C500.66,307.92 500.78,307.8 500.78,307.68 L500.78,307.26 L500.72,306.48 L500.78,302.7 C500.78,302.58 500.84,302.4 500.6,302.4 L500.6,302.34 C500.6,302.28 500.66,302.28 500.66,302.28 C500.72,302.22 500.78,302.16 500.9,302.16 C500.84,302.04 500.84,301.92 500.72,301.86 C500.6,301.8 500.6,301.68 500.6,301.56 L500.72,300.78 C500.72,300.78 500.78,300.72 500.72,300.72 C500.66,300.3 500.78,299.88 500.84,299.46 L500.9,298.26 C500.9,297.96 500.9,297.84 500.84,297.84 C500.78,297.84 500.72,297.9 500.42,298.02 C500.18,298.14 500,298.26 499.82,298.5 C499.76,298.5 499.76,298.56 499.76,298.56 C499.28,298.86 499.04,299.28 498.8,299.7 C498.62,299.94 498.62,300.18 498.5,300.36 L498.02,301.5 C497.9,301.92 497.72,302.28 497.54,302.7 C497.48,302.82 497.42,302.94 497.42,303.06 C497.3,303.36 497.24,303.66 497.18,304.02 C497.12,304.08 497.12,304.14 497.06,304.2 C496.94,304.5 496.88,304.8 496.82,305.16 C496.7,305.28 496.64,305.4 496.46,305.4 C496.1,305.46 495.8,305.76 495.56,306.06 C495.38,306.36 495.08,306.42 494.84,306.48 L494.72,306.48 C494.6,306.48 494.54,306.42 494.48,306.36 C494.48,306.24 494.42,306.24 494.3,306.24 C493.7,306.24 493.28,306 493.1,305.52 C492.86,305.22 492.74,304.92 492.62,304.56 C492.56,304.44 492.62,304.32 492.62,304.2 C492.56,304.14 492.56,304.08 492.62,304.02 L492.62,303.78 C492.5,303.6 492.5,303.42 492.5,303.24 C492.5,303 492.5,302.82 492.44,302.58 L492.44,300.36 C492.5,300.18 492.44,300.06 492.44,299.88 L492.44,299.58 C492.5,299.4 492.56,299.22 492.62,299.1 C492.62,297.96 492.68,296.88 492.8,295.8 L492.92,295.26 C492.98,294.84 493.04,294.3 492.92,294.12 C492.86,294 492.86,293.88 492.92,293.76 L492.92,293.64 C493.04,293.52 493.16,293.34 493.34,293.28 C493.46,293.16 493.64,293.1 493.82,293.1 L494.18,293.1 C494.3,293.1 494.36,293.1 494.54,293.04 C494.84,293.04 495.14,293.04 495.44,292.98 C495.56,292.98 495.68,292.98 495.86,293.04 L496.46,293.22 C496.64,293.28 496.76,293.34 496.7,293.46 C496.7,293.52 496.7,293.58 496.64,293.64 L496.58,293.82 C496.58,294.18 496.58,294.54 496.52,294.96 L496.52,295.2 C496.52,295.26 496.46,295.38 496.4,295.44 C496.34,295.5 496.34,295.5 496.34,295.56 L496.34,295.74 C496.4,295.86 496.46,295.98 496.46,296.04 C496.4,296.16 496.34,296.22 496.34,296.28 L496.28,296.58 C496.28,296.64 496.34,296.76 496.34,296.82 C496.28,296.88 496.22,296.94 496.22,297 L496.22,297.18 C496.28,297.36 496.22,297.66 496.28,297.9 C496.28,297.96 496.22,298.14 496.28,298.2 C496.34,298.44 496.34,298.68 496.28,298.86 L496.16,299.64 C496.16,299.76 496.1,299.88 496.04,300 C496.04,300.06 496.1,300.12 496.1,300.18 L496.16,300.42 C496.16,300.54 496.04,300.66 495.92,300.66 L495.68,300.78 C495.56,300.84 495.5,300.9 495.5,300.96 C495.44,301.02 495.44,301.02 495.5,301.14 L495.62,301.14 C495.62,301.08 495.68,301.02 495.8,300.96 C495.86,300.9 495.86,300.9 495.92,300.9 L495.98,300.9 C495.98,300.96 496.04,300.96 495.98,301.02 C495.98,301.08 495.92,301.14 495.92,301.14 C495.92,301.2 495.86,301.26 495.86,301.32 L495.8,301.44 C495.8,301.5 495.86,301.56 495.92,301.62 L496.04,301.68 C496.04,301.68 496.04,301.74 495.92,301.8 L495.92,301.92 L496.04,301.92 L496.7,300.96 C497,300.42 497.3,299.88 497.72,299.4 C497.9,299.04 498.2,298.74 498.5,298.5 L499.16,297.9 C499.58,297.54 500.06,297.24 500.6,297 C501.14,296.7 501.68,296.58 502.22,296.58 L502.52,296.58 C502.88,296.58 503.18,296.76 503.24,297.12 L503.36,297.42 C503.42,297.54 503.36,297.66 503.36,297.78 C503.36,297.9 503.24,298.02 503.24,298.2 C503.24,298.5 503.24,298.74 503.18,298.98 L502.94,300.42 C502.94,300.6 502.88,300.78 502.76,301.02 L502.76,301.32 C502.7,301.56 502.7,301.86 502.76,302.1 C502.7,302.22 502.76,302.34 502.76,302.4 C502.76,302.52 502.64,302.58 502.58,302.7 C502.52,302.82 502.46,302.88 502.4,302.94 C502.4,303 502.46,303.12 502.52,303.18 L502.52,303.24 C502.52,303.66 502.52,304.02 502.4,304.44 C502.4,304.62 502.4,304.8 502.28,304.98 C502.28,305.34 502.16,305.76 502.34,306.12 C502.4,306.12 502.46,306.18 502.46,306.3 L502.52,307.26 C502.52,307.62 502.52,307.98 502.58,308.28 C502.64,308.58 502.7,308.76 502.76,309 C502.76,309 502.82,309.06 502.88,309.06 C502.88,309 502.94,309 503,308.94 C503,308.7 503.06,308.52 503.12,308.28 L503.72,305.88 C503.72,305.88 503.72,305.82 503.78,305.76 C503.78,305.76 503.84,305.76 503.9,305.82 C503.96,305.94 504.08,306.06 504.08,306.18 C504.08,306.24 504.02,306.24 504.02,306.3 C504.02,306.3 503.974443,306.345557 504.00242,306.396975 L504.025536,306.399615 Z M504.955219,303.709561 L504.92,303.78 C504.92,303.84 504.92,303.9 505.04,303.9 C505.04,303.84 505.04,303.78 504.98,303.72 C504.98,303.72 504.961301,303.72 504.955219,303.709561 L504.955219,303.709561 Z M496.1,298.5 C496.1,298.5 496.04,298.56 495.98,298.56 C495.98,298.62 496.04,298.62 496.04,298.68 L496.16,298.56 C496.16,298.5 496.1,298.5 496.1,298.5 Z" id="RubyKraken"></path>
        </g>
    </g>
</svg>